<svg id="Layer_1" data-name="Layer 1" xmlns="http://www.w3.org/2000/svg" viewBox="0 0 376.23 376.23"><defs><style>.cls-1{fill:#8591e8;}.cls-2{fill:#4b5582;}</style></defs><title>competition</title><path class="cls-1" d="M187.75,221.63l-1.37,0a77.67,77.67,0,0,1-20.15-3.06A79.39,79.39,0,0,1,110,157a79.51,79.51,0,0,1,63.21-93,80.46,80.46,0,0,1,15.07-1.43,79.54,79.54,0,0,1,34.78,151,5.35,5.35,0,0,1-2.39.56,5.43,5.43,0,0,1-2.38-10.32,68.68,68.68,0,0,0-30-130.36,69.75,69.75,0,0,0-13,1.23A68.62,68.62,0,0,0,141,192a68.76,68.76,0,0,0,45.63,18.72h1.11a5.44,5.44,0,0,1,0,10.87Z"/><path class="cls-2" d="M188.29,63.06a79,79,0,0,1,34.56,150.05,4.94,4.94,0,0,1-4.33-8.87A69.18,69.18,0,0,0,188.27,72.93a70.63,70.63,0,0,0-13.11,1.24,69.13,69.13,0,0,0-34.5,118.23,69.27,69.27,0,0,0,46,18.86h1.12a4.93,4.93,0,1,1,0,9.86l-1.36,0a77.17,77.17,0,0,1-20-3,78.89,78.89,0,0,1-55.86-61.16,79,79,0,0,1,62.81-92.43,80.26,80.26,0,0,1,15-1.42m0-1a80.38,80.38,0,0,0-15.16,1.44,80,80,0,0,0-39.91,136.82A80.31,80.31,0,0,0,166.09,219a78.5,78.5,0,0,0,20.28,3.08l1.38,0a5.93,5.93,0,1,0,0-11.86h-1.09A68.17,68.17,0,0,1,175.35,75.15a68.92,68.92,0,0,1,12.92-1.22,68.18,68.18,0,0,1,29.81,129.41,5.94,5.94,0,0,0,2.6,11.27,5.8,5.8,0,0,0,2.61-.61,80.05,80.05,0,0,0-35-151.94Z"/><path class="cls-1" d="M241.92,340.81h-.17a5.41,5.41,0,0,1-4.74-3.22L196.19,245.9l-.35,0c-2.71.21-5.47.32-8.19.32-2.38,0-4.84-.09-7.3-.25l-.34,0-40.79,91.61a5.38,5.38,0,0,1-4.7,3.22h-.27a5.43,5.43,0,0,1-4.73-2.77l-19.89-35.31-39.55,8.85a5,5,0,0,1-1.18.13,5.43,5.43,0,0,1-5-7.64l42.67-95.83-.2-.23a105.44,105.44,0,0,1,53.5-168.9,5.4,5.4,0,0,1,6.67,3.81,5.44,5.44,0,0,1-3.81,6.67,94.58,94.58,0,0,0-45.8,154l.06.06a95.69,95.69,0,0,0,13.44,12.44l.72.54.21.15q.75.57,1.53,1.11l.14.11,1.61,1.11a93.25,93.25,0,0,0,25.16,12.07,94.2,94.2,0,0,0,17.39,3.6,99.5,99.5,0,0,0,10.43.56,96,96,0,0,0,11.26-.66,94.08,94.08,0,0,0,45.78-18.48l.11-.09c.2-.14.45-.32.69-.52A94.55,94.55,0,0,0,187.65,46.28a5.43,5.43,0,1,1,0-10.86,105.4,105.4,0,0,1,81.84,171.84l-.19.24,43,96.57a5.43,5.43,0,0,1-5,7.64,5,5,0,0,1-1.19-.13l-39.54-8.85L246.71,338a5.43,5.43,0,0,1-4.73,2.77ZM216,242.39c-2.68.75-5.35,1.38-7.95,1.89l-.62.12,35.13,78.89,16.57-29.41a5.44,5.44,0,0,1,4.73-2.77,5.37,5.37,0,0,1,1.19.14l10.08,2.25-28.93-65-.49.32A104.58,104.58,0,0,1,226.16,239l-.49.19,19.16,43a4.87,4.87,0,0,1-2.46,6.43,4.93,4.93,0,0,1-2,.42,4.87,4.87,0,0,1-4.45-2.89L216.4,242.28Zm-87.84,71.06,5.55,9.84,35.05-78.74-.62-.11c-2.56-.48-5.25-1.09-8-1.82l-.41-.11Zm-15.76-22.34a5.46,5.46,0,0,1,4.74,2.77l5.06,9,28.23-63.4-.49-.19a104.56,104.56,0,0,1-19.6-10l-.49-.32L101.12,293.5l10.07-2.25A5.44,5.44,0,0,1,112.38,291.11Zm-34.13,7.51,11-2.46,32.5-73-.3-.24c-2.13-1.73-4.26-3.59-6.32-5.53l-.52-.49Zm182.54-81.87c-2.11,2-4.22,3.9-6.3,5.59l-.29.25L287,296.16l11,2.46L261.3,216.26Z"/><path class="cls-2" d="M187.65,35.92a104.91,104.91,0,0,1,81.46,171l-.39.48.25.56,42.87,96.28a4.94,4.94,0,0,1-4.51,6.94,5.34,5.34,0,0,1-1.08-.11l-39.18-8.77-.73-.16-.36.64-19.71,35a4.93,4.93,0,0,1-4.29,2.51h-.24a4.94,4.94,0,0,1-4.28-2.92L196.79,246l-.29-.64-.7.05c-2.69.21-5.44.32-8.15.32-2.37,0-4.81-.09-7.26-.25l-.7-.05-.28.64-40.65,91.29a4.89,4.89,0,0,1-4.27,2.92h-.24A4.92,4.92,0,0,1,130,337.8l-19.71-35-.37-.64-.72.16L70,311.09a4.55,4.55,0,0,1-1.07.12,4.94,4.94,0,0,1-4.52-6.94l42.55-95.54.25-.57-.39-.47A104.94,104.94,0,0,1,160,39.59a4.74,4.74,0,0,1,1.3-.18,4.93,4.93,0,0,1,1.29,9.69,95.09,95.09,0,0,0-46.24,154.64h0l.26.29a95.9,95.9,0,0,0,13.5,12.49l.83.62c.55.41,1.09.81,1.68,1.23l1.72,1.19a94.45,94.45,0,0,0,42.78,15.75h.07a99.17,99.17,0,0,0,10.42.56,96,96,0,0,0,11.26-.66H199a95.7,95.7,0,0,0,17.39-3.76,94.45,94.45,0,0,0,28.55-14.79l.13-.09c.25-.18.49-.37.72-.55A96.07,96.07,0,0,0,259.2,203.4l0,0,.09-.1a95.05,95.05,0,0,0-71.66-157.5,4.93,4.93,0,1,1,0-9.86m111.19,263.4-.81-1.81-36-80.81-.58-1.29-1,1c-2.09,2-4.2,3.88-6.26,5.57l-.59.48.31.7,32.49,73,.2.46.49.11,9.82,2.19,1.94.43m-221.45,0,1.94-.43,9.81-2.19.49-.11.21-.46,32.24-72.43.31-.7-.59-.49c-2.13-1.72-4.25-3.57-6.3-5.51l-1-1-.57,1.29L78.2,297.51l-.81,1.81m163-10.77a4.38,4.38,0,0,1-4-2.59L217,242.47l-.35-.79-.83.23c-2.67.75-5.34,1.38-7.92,1.88l-1.23.23.51,1.15,34.47,77.42.81,1.81,1-1.73,16.07-28.54a4.86,4.86,0,0,1,5.38-2.39l9.11,2,1.94.44-.81-1.82-28.28-63.54-.48-1.08-1,.66A105,105,0,0,1,226,238.53l-1,.38.43,1,18.95,42.55a4.39,4.39,0,0,1-2.2,5.76,4.57,4.57,0,0,1-1.79.38m-140.13,5.66,1.94-.44,9.1-2a5.06,5.06,0,0,1,1.08-.13,4.94,4.94,0,0,1,4.3,2.52l4.58,8.14,1,1.73.81-1.82,27.6-62,.43-1-1-.38a103.51,103.51,0,0,1-19.5-10l-1-.64-.47,1.08-28.07,63.07-.81,1.82m33.48,30.19.81-1.81,34.39-77.25.52-1.16-1.25-.23c-2.55-.48-5.22-1.08-8-1.81l-.82-.22-.35.78L127.79,313l-.21.46.25.43,4.93,8.76,1,1.73M187.65,34.92a5.93,5.93,0,1,0,0,11.86,94.06,94.06,0,0,1,70.91,155.85l-.07.06a95.23,95.23,0,0,1-13.31,12.55l-.73.56-.06,0a93.67,93.67,0,0,1-45.51,18.38h0a94.47,94.47,0,0,1-11.2.66,96.81,96.81,0,0,1-10.37-.56h0A94.62,94.62,0,0,1,160,230.75a92.88,92.88,0,0,1-25-12l-1.74-1.2-1.66-1.21-.78-.59a95.51,95.51,0,0,1-13.38-12.37h0l-.06-.06A94.08,94.08,0,0,1,162.89,50.07a5.94,5.94,0,0,0-1.55-11.66,5.67,5.67,0,0,0-1.57.22A105.93,105.93,0,0,0,106,208.32L63.47,303.86a5.94,5.94,0,0,0,5.43,8.35,5.72,5.72,0,0,0,1.29-.14l39.19-8.77,19.7,35a6,6,0,0,0,5.17,3h.29a5.94,5.94,0,0,0,5.14-3.51l40.64-91.29c2.43.16,4.89.25,7.33.25,2.74,0,5.49-.11,8.23-.32l40.67,91.36a6,6,0,0,0,5.15,3.51H242a5.92,5.92,0,0,0,5.16-3l19.71-35L306,312.07a5.66,5.66,0,0,0,1.29.14,5.94,5.94,0,0,0,5.43-8.35l-42.88-96.28A105.9,105.9,0,0,0,187.65,34.92Zm109.46,263-9.81-2.19-32.49-73c2.18-1.79,4.29-3.67,6.32-5.62l36,80.8Zm-218,0,35.7-80.18c2,1.93,4.17,3.79,6.36,5.56L88.92,295.72l-9.81,2.19Zm161.28-8.36a5.44,5.44,0,0,0,2.18-.46,5.37,5.37,0,0,0,2.72-7.09l-18.95-42.54A105.32,105.32,0,0,0,246,229.26l28.29,63.54-9.11-2a5.76,5.76,0,0,0-1.3-.15,5.93,5.93,0,0,0-5.17,3l-16.08,28.54-34.47-77.41c2.7-.52,5.36-1.16,8-1.9l19.37,43.5a5.37,5.37,0,0,0,4.9,3.18ZM102,292.8l28.07-63.08a104.34,104.34,0,0,0,19.69,10l-27.61,62-4.57-8.14a6,6,0,0,0-5.18-3,5.68,5.68,0,0,0-1.29.15l-9.11,2Zm31.65,29.38-4.93-8.76L160,243.11c2.65.7,5.32,1.32,8,1.82l-34.4,77.25Z"/><path class="cls-1" d="M163.38,183.12a4.81,4.81,0,0,1-4.73-5.63l4.29-25-18.2-17.73a4.82,4.82,0,0,1,2.67-8.21l25.15-3.65,11.24-22.79a4.81,4.81,0,0,1,8.63,0l11.24,22.79,25.14,3.65a4.81,4.81,0,0,1,2.67,8.21l-18.19,17.73,4.29,25a4.8,4.8,0,0,1-1.91,4.71,4.87,4.87,0,0,1-2.84.9h0a4.82,4.82,0,0,1-2.23-.53l-22.48-11.83-22.49,11.83A5,5,0,0,1,163.38,183.12Zm24.74-22.63a4.6,4.6,0,0,1,2.22.56l16.11,8.46-3.07-17.93a4.82,4.82,0,0,1,1.38-4.26l13-12.69-18-2.62a4.78,4.78,0,0,1-3.62-2.63l-8-16.31-8.06,16.31a4.78,4.78,0,0,1-3.62,2.63l-18,2.62,13,12.69a4.86,4.86,0,0,1,1.38,4.26l-3.08,17.93,16.11-8.46A4.68,4.68,0,0,1,188.12,160.49Z"/><path class="cls-2" d="M188.12,97.89a4.3,4.3,0,0,1,3.86,2.4l11.13,22.55.23.47.52.08L228.75,127a4.31,4.31,0,0,1,2.38,7.35l-18,17.55-.38.36.09.52,4.25,24.79a4.31,4.31,0,0,1-1.71,4.22,4.48,4.48,0,0,1-4.55.33l-22.25-11.71-.46-.24-.47.24-22.25,11.7a4.37,4.37,0,0,1-2,.5,4.31,4.31,0,0,1-4.24-5l4.25-24.79.09-.52-.38-.36-18-17.55a4.3,4.3,0,0,1,2.38-7.35l24.89-3.62.52-.08.23-.47,11.12-22.54a4.31,4.31,0,0,1,3.88-2.41m-19,72.53,1.79-.94,15.22-8a4.21,4.21,0,0,1,2-.5,4.27,4.27,0,0,1,2,.5l15.2,8,1.8.94-.35-2-2.9-16.92a4.33,4.33,0,0,1,1.24-3.82l12.3-12,1.45-1.42-2-.29-17-2.47a4.35,4.35,0,0,1-3.25-2.36L189,113.76l-.9-1.82-.9,1.82-7.61,15.4a4.32,4.32,0,0,1-3.24,2.36l-17,2.47-2,.29,1.45,1.42,12.3,12a4.36,4.36,0,0,1,1.24,3.82l-2.91,16.92-.34,2m19-73.53a5.31,5.31,0,0,0-4.77,3L172.22,122.4,147.34,126a5.26,5.26,0,0,0-4.29,3.61,5.33,5.33,0,0,0,1.34,5.45l18,17.54-4.24,24.79a5.32,5.32,0,0,0,5.22,6.21,5.35,5.35,0,0,0,2.48-.61l22.26-11.7L210.37,183a5.31,5.31,0,0,0,7.7-5.6l-4.25-24.79,18-17.54a5.29,5.29,0,0,0,1.34-5.45,5.24,5.24,0,0,0-4.28-3.61L204,122.4,192.88,99.85a5.3,5.3,0,0,0-4.76-3Zm-17.68,71.7,2.9-16.92a5.38,5.38,0,0,0-1.52-4.71l-12.3-12,17-2.47a5.28,5.28,0,0,0,4-2.91l7.61-15.4,7.6,15.4a5.3,5.3,0,0,0,4,2.91l17,2.47-12.3,12a5.36,5.36,0,0,0-1.53,4.71l2.91,16.92-15.21-8a5.21,5.21,0,0,0-4.93,0l-15.21,8Z"/></svg>