<svg id="Layer_1" data-name="Layer 1" xmlns="http://www.w3.org/2000/svg" viewBox="0 0 800 800"><defs><style>.cls-1{fill:#fff;}.cls-1,.cls-2{stroke:#4b5582;stroke-miterlimit:10;stroke-width:3px;}.cls-2{fill:#8591e8;}</style></defs><title>gameing</title><rect class="cls-1" x="123.58" y="106.39" width="212.18" height="578.83" rx="26.66"/><path class="cls-2" d="M310.06,703.11H149a38.21,38.21,0,0,1-38.16-38.17V134.79A38.21,38.21,0,0,1,149,96.63h161a38.21,38.21,0,0,1,38.17,38.16V664.94A38.21,38.21,0,0,1,310.06,703.11ZM149,116.75a18.07,18.07,0,0,0-18,18V664.94a18.07,18.07,0,0,0,18,18h161a18.07,18.07,0,0,0,18.05-18V134.79a18.07,18.07,0,0,0-18.05-18Z"/><path class="cls-2" d="M229.55,379.88a10.06,10.06,0,0,1-10.06-10.06v-209a10.07,10.07,0,1,1,20.13,0v209A10.06,10.06,0,0,1,229.55,379.88Z"/><path class="cls-2" d="M229.55,524.54a47.27,47.27,0,1,1,47.27-47.27A47.32,47.32,0,0,1,229.55,524.54Zm0-74.41a27.14,27.14,0,1,0,27.14,27.14A27.18,27.18,0,0,0,229.55,450.13Z"/><path class="cls-2" d="M262.8,598.35H196.31a10.06,10.06,0,1,1,0-20.12H262.8a10.06,10.06,0,1,1,0,20.12Z"/><path class="cls-2" d="M262.8,652.18H196.31a10.07,10.07,0,1,1,0-20.13H262.8a10.07,10.07,0,0,1,0,20.13Z"/><polygon class="cls-1" points="382.72 429.99 332.65 465.46 309.1 529.01 300.24 577.38 296.54 645.02 306.02 679.75 354.18 688.62 405.17 638.57 436.94 622.11 531.52 623.59 566.25 632.61 604.58 673.1 634.63 693.05 669.23 679.75 680.05 656.1 680.05 595 664.53 522.59 645.32 472.11 613.55 438.1 571.27 426.29 537.44 438.1 507.88 452.16 488.3 452.89 451.72 441.81 419.21 426.29 382.72 429.99"/><g id="EDJMXQ.tif"><path class="cls-2" d="M457.17,632.64c-2.84,0-5.67.09-8.51.21q19.5-.21,39-.23Q472.41,632.59,457.17,632.64Z"/><path class="cls-2" d="M681.07,545.59c-5.8-30.14-14.5-59.28-32.2-84.92-18.67-27-44-42.26-77.39-42.41-21.34-.09-40.54,7.31-58.18,18.6-7.64,4.9-15.17,7.68-22.72,8.28-.5.05-1,.08-1.51.09s-1,0-1.44,0-1,0-1.45,0c-8.05-.33-16.08-3.15-24.23-8.37-17.65-11.29-36.84-18.69-58.19-18.6-33.39.15-58.72,15.38-77.39,42.41-17.7,25.64-26.4,54.78-32.2,84.92-6.54,33.94-8.61,68.26-7.92,102.77a64.75,64.75,0,0,0,7.63,29.44c13.53,25.45,39.66,32.87,64.3,17.89a97.12,97.12,0,0,0,16.49-13.21c11.92-11.48,24.06-22.84,35-35.25,8.15-9.27,17.93-13.28,29.13-14.13,1.3-.11,2.61-.17,3.95-.18l6-.07c2.84-.12,5.67-.2,8.51-.21q15.22,0,30.46,0,19.47,0,39,.23l6,.07c1.33,0,2.65.07,4,.18,11.2.85,21,4.86,29.12,14.13,10.9,12.41,23,23.77,35,35.25a97.19,97.19,0,0,0,16.5,13.21c24.64,15,50.77,7.56,64.29-17.89A64.63,64.63,0,0,0,689,648.36C689.68,613.85,687.61,579.53,681.07,545.59Zm-12,102.67c-.21,10.8-3.73,20.42-11.28,28.34-6.09,6.4-13.75,9-21.79,5.66a67.93,67.93,0,0,1-19.59-12.21c-13.77-12.73-27.16-26-39.89-39.77-9.35-10.14-20.85-14.42-33.85-16.3a29.75,29.75,0,0,0-3.87-.43l-9.14-.19c-14-.34-28.05-.8-42.07-.94-14,.14-28.05.6-42.09.94l-9.13.19a29.9,29.9,0,0,0-3.88.43c-13,1.88-24.5,6.16-33.84,16.3-12.74,13.79-26.12,27-39.89,39.77a67.93,67.93,0,0,1-19.59,12.21c-8,3.39-15.7.74-21.79-5.66-7.55-7.92-11.07-17.54-11.28-28.34-.73-37.32,1.86-74.36,10.26-110.81,5.85-25.35,14.06-49.8,30.53-70.54,16.72-21,38.33-31.41,65.44-28.25a83.92,83.92,0,0,1,26.39,7.79,117.9,117.9,0,0,1,15.68,9,2.53,2.53,0,0,0,.22.13l.22.11c6,2.81,12,6.21,18.33,7.44a64.94,64.94,0,0,0,28.83,0c6.35-1.23,12.35-4.63,18.32-7.44a1.2,1.2,0,0,0,.23-.11,2.39,2.39,0,0,0,.21-.13,117.38,117.38,0,0,1,15.69-9,83.86,83.86,0,0,1,26.38-7.79c27.12-3.16,48.73,7.21,65.44,28.25,16.47,20.74,24.69,45.19,30.54,70.54C667.24,573.9,669.84,610.94,669.11,648.26Z"/></g><path class="cls-2" d="M437.51,536.08a16.77,16.77,0,0,1-16.78,16.78h-13.4v13.41a16.78,16.78,0,1,1-33.55,0V552.86H360.36a16.78,16.78,0,0,1,0-33.56h13.42V505.89a16.78,16.78,0,1,1,33.55,0V519.3h13.4A16.78,16.78,0,0,1,437.51,536.08Z"/><circle class="cls-2" cx="585.69" cy="566.22" r="16.65"/><circle class="cls-2" cx="585.69" cy="505.94" r="16.65"/><circle class="cls-2" cx="555.36" cy="536.13" r="16.65"/><circle class="cls-2" cx="615.74" cy="536.13" r="16.65"/></svg>