<svg id="Layer_1" data-name="Layer 1" xmlns="http://www.w3.org/2000/svg" viewBox="0 0 800 800"><defs><style>.cls-1{fill:#8591e8;}.cls-2{fill:#4b5582;}</style></defs><title>leaderboard</title><path class="cls-1" d="M118,484.33a24.93,24.93,0,0,1-24.9-24.91V340.58A24.93,24.93,0,0,1,118,315.67H682a24.93,24.93,0,0,1,24.9,24.91V459.42A24.93,24.93,0,0,1,682,484.33ZM118,335a5.58,5.58,0,0,0-5.57,5.57V459.42A5.58,5.58,0,0,0,118,465H682a5.58,5.58,0,0,0,5.57-5.57V340.58A5.58,5.58,0,0,0,682,335Z"/><path class="cls-2" d="M682,317.17a23.43,23.43,0,0,1,23.4,23.41V459.42A23.43,23.43,0,0,1,682,482.83H118a23.43,23.43,0,0,1-23.4-23.41V340.58A23.43,23.43,0,0,1,118,317.17H682M118,466.49H682a7.08,7.08,0,0,0,7.07-7.07V340.58a7.08,7.08,0,0,0-7.07-7.07H118a7.08,7.08,0,0,0-7.07,7.07V459.42a7.08,7.08,0,0,0,7.07,7.07M682,314.17H118a26.43,26.43,0,0,0-26.4,26.41V459.42A26.43,26.43,0,0,0,118,485.83H682a26.43,26.43,0,0,0,26.4-26.41V340.58A26.43,26.43,0,0,0,682,314.17ZM118,463.49a4.07,4.07,0,0,1-4.07-4.07V340.58a4.07,4.07,0,0,1,4.07-4.07H682a4.07,4.07,0,0,1,4.07,4.07V459.42a4.07,4.07,0,0,1-4.07,4.07Z"/><path class="cls-1" d="M162.29,451a23.87,23.87,0,0,1-23.84-23.84V372.8A23.87,23.87,0,0,1,162.29,349h54.39a23.87,23.87,0,0,1,23.84,23.84v54.4A23.87,23.87,0,0,1,216.68,451Zm0-83.83a5.6,5.6,0,0,0-5.59,5.59v54.4a5.6,5.6,0,0,0,5.59,5.59h54.39a5.59,5.59,0,0,0,5.59-5.59V372.8a5.59,5.59,0,0,0-5.59-5.59Z"/><path class="cls-2" d="M216.68,350.46A22.36,22.36,0,0,1,239,372.8v54.4a22.36,22.36,0,0,1-22.34,22.34H162.29A22.36,22.36,0,0,1,140,427.2V372.8a22.36,22.36,0,0,1,22.34-22.34h54.39m-54.39,83.83h54.39a7.11,7.11,0,0,0,7.1-7.09V372.8a7.11,7.11,0,0,0-7.1-7.09H162.29a7.1,7.1,0,0,0-7.09,7.09v54.4a7.1,7.1,0,0,0,7.09,7.09m54.39-86.83H162.29A25.37,25.37,0,0,0,137,372.8v54.4a25.37,25.37,0,0,0,25.34,25.34h54.39A25.37,25.37,0,0,0,242,427.2V372.8a25.37,25.37,0,0,0-25.34-25.34Zm-54.39,83.83a4.09,4.09,0,0,1-4.09-4.09V372.8a4.09,4.09,0,0,1,4.09-4.09h54.39a4.1,4.1,0,0,1,4.1,4.09v54.4a4.1,4.1,0,0,1-4.1,4.09Z"/><path class="cls-1" d="M282.42,380.84a10.21,10.21,0,1,1,0-20.42h370a10.21,10.21,0,1,1,0,20.42Z"/><path class="cls-2" d="M652.43,361.92a8.71,8.71,0,1,1,0,17.42h-370a8.71,8.71,0,1,1,0-17.42h370m0-3h-370a11.71,11.71,0,1,0,0,23.42h370a11.71,11.71,0,1,0,0-23.42Z"/><path class="cls-1" d="M282.42,439.58a10.21,10.21,0,1,1,0-20.42h185a10.21,10.21,0,1,1,0,20.42Z"/><path class="cls-2" d="M467.42,420.66a8.71,8.71,0,1,1,0,17.42h-185a8.71,8.71,0,1,1,0-17.42h185m0-3h-185a11.71,11.71,0,1,0,0,23.42h185a11.71,11.71,0,1,0,0-23.42Z"/><path class="cls-1" d="M162.29,619.32a23.87,23.87,0,0,1-23.84-23.84v-54.4a23.87,23.87,0,0,1,23.84-23.84h54.39a23.87,23.87,0,0,1,23.84,23.84v54.4a23.87,23.87,0,0,1-23.84,23.84Zm0-83.83a5.6,5.6,0,0,0-5.59,5.59v54.4a5.6,5.6,0,0,0,5.59,5.59h54.39a5.59,5.59,0,0,0,5.59-5.59v-54.4a5.59,5.59,0,0,0-5.59-5.59Z"/><path class="cls-2" d="M216.68,518.74A22.36,22.36,0,0,1,239,541.08v54.4a22.36,22.36,0,0,1-22.34,22.34H162.29A22.36,22.36,0,0,1,140,595.48v-54.4a22.36,22.36,0,0,1,22.34-22.34h54.39m-54.39,83.83h54.39a7.11,7.11,0,0,0,7.1-7.09v-54.4a7.11,7.11,0,0,0-7.1-7.09H162.29a7.1,7.1,0,0,0-7.09,7.09v54.4a7.1,7.1,0,0,0,7.09,7.09m54.39-86.83H162.29A25.37,25.37,0,0,0,137,541.08v54.4a25.37,25.37,0,0,0,25.34,25.34h54.39A25.37,25.37,0,0,0,242,595.48v-54.4a25.37,25.37,0,0,0-25.34-25.34Zm-54.39,83.83a4.09,4.09,0,0,1-4.09-4.09v-54.4a4.09,4.09,0,0,1,4.09-4.09h54.39a4.1,4.1,0,0,1,4.1,4.09v54.4a4.1,4.1,0,0,1-4.1,4.09Z"/><path class="cls-1" d="M282.42,549.12a10.21,10.21,0,1,1,0-20.42h370a10.21,10.21,0,1,1,0,20.42Z"/><path class="cls-2" d="M652.43,530.2a8.71,8.71,0,1,1,0,17.42h-370a8.71,8.71,0,1,1,0-17.42h370m0-3h-370a11.71,11.71,0,1,0,0,23.42h370a11.71,11.71,0,1,0,0-23.42Z"/><path class="cls-1" d="M282.42,607.86a10.22,10.22,0,1,1,0-20.43h185a10.22,10.22,0,1,1,0,20.43Z"/><path class="cls-2" d="M467.42,588.93a8.72,8.72,0,1,1,0,17.43h-185a8.72,8.72,0,1,1,0-17.43h185m0-3h-185a11.72,11.72,0,1,0,0,23.43h185a11.72,11.72,0,1,0,0-23.43Z"/><path class="cls-1" d="M183.83,254.23a6.75,6.75,0,0,1-4.9-2.13l-12.15-13a6.7,6.7,0,1,1,9.79-9.14l6.8,7.28,19.49-25.06a6.7,6.7,0,1,1,10.57,8.22l-24.31,31.26a6.7,6.7,0,0,1-5,2.58Z"/><path class="cls-2" d="M208.15,211.07a5.2,5.2,0,0,1,4.1,8.39l-24.32,31.26a5.15,5.15,0,0,1-3.87,2h-.23a5.22,5.22,0,0,1-3.8-1.65l-12.16-13a5.2,5.2,0,0,1,7.6-7.09l8,8.57L204,213.08a5.2,5.2,0,0,1,4.11-2m0-3h0a8.13,8.13,0,0,0-6.47,3.16l-18.42,23.68-5.6-6a8.2,8.2,0,0,0-11.58-.4,8.2,8.2,0,0,0-.4,11.59l12.16,13a8.23,8.23,0,0,0,6,2.6h.38a8.2,8.2,0,0,0,6.09-3.15l24.32-31.27a8.2,8.2,0,0,0-1.44-11.5,8.11,8.11,0,0,0-5-1.73Z"/><path class="cls-1" d="M162.29,282.76a23.87,23.87,0,0,1-23.84-23.84v-54.4a23.87,23.87,0,0,1,23.84-23.84h54.39a23.87,23.87,0,0,1,23.84,23.84v54.4a23.87,23.87,0,0,1-23.84,23.84Zm0-83.83a5.6,5.6,0,0,0-5.59,5.59v54.4a5.6,5.6,0,0,0,5.59,5.59h54.39a5.59,5.59,0,0,0,5.59-5.59v-54.4a5.59,5.59,0,0,0-5.59-5.59Z"/><path class="cls-2" d="M216.68,182.18A22.36,22.36,0,0,1,239,204.52v54.4a22.36,22.36,0,0,1-22.34,22.34H162.29A22.36,22.36,0,0,1,140,258.92v-54.4a22.36,22.36,0,0,1,22.34-22.34h54.39M162.29,266h54.39a7.11,7.11,0,0,0,7.1-7.09v-54.4a7.11,7.11,0,0,0-7.1-7.09H162.29a7.1,7.1,0,0,0-7.09,7.09v54.4a7.1,7.1,0,0,0,7.09,7.09m54.39-86.83H162.29A25.37,25.37,0,0,0,137,204.52v54.4a25.37,25.37,0,0,0,25.34,25.34h54.39A25.37,25.37,0,0,0,242,258.92v-54.4a25.37,25.37,0,0,0-25.34-25.34ZM162.29,263a4.09,4.09,0,0,1-4.09-4.09v-54.4a4.09,4.09,0,0,1,4.09-4.09h54.39a4.1,4.1,0,0,1,4.1,4.09v54.4a4.1,4.1,0,0,1-4.1,4.09Z"/><path class="cls-1" d="M282.42,212.57a10.22,10.22,0,1,1,0-20.43h370a10.22,10.22,0,0,1,0,20.43Z"/><path class="cls-2" d="M652.43,193.64a8.72,8.72,0,0,1,0,17.43h-370a8.72,8.72,0,1,1,0-17.43h370m0-3h-370a11.72,11.72,0,1,0,0,23.43h370a11.72,11.72,0,0,0,0-23.43Z"/><path class="cls-1" d="M282.42,271.3a10.21,10.21,0,1,1,0-20.42h185a10.21,10.21,0,1,1,0,20.42Z"/><path class="cls-2" d="M467.42,252.38a8.71,8.71,0,1,1,0,17.42h-185a8.71,8.71,0,1,1,0-17.42h185m0-3h-185a11.71,11.71,0,1,0,0,23.42h185a11.71,11.71,0,1,0,0-23.42Z"/></svg>