<svg id="Layer_1" data-name="Layer 1" xmlns="http://www.w3.org/2000/svg" viewBox="0 0 776.77 411.64"><defs><style>.cls-1{fill:#8591e8;stroke:#4b5582;stroke-miterlimit:10;stroke-width:3px;}</style></defs><title>logo</title><path class="cls-1" d="M570.29,400.68a194.24,194.24,0,0,1-137.85-57l-7.6-7.6a25.77,25.77,0,0,1,36.45-36.45l7.6,7.6c55.9,55.91,146.87,55.91,202.8,0s55.9-146.88,0-202.8-146.88-55.9-202.8,0l-93.44,93.44A25.78,25.78,0,0,1,339,161.41L432.44,68c76-76,199.68-76,275.7,0s76,199.7,0,275.7A194.34,194.34,0,0,1,570.29,400.68Z"/><path class="cls-1" d="M206.57,400.68A194.89,194.89,0,0,1,68.72,68c76-76,199.69-76,275.7,0l6.46,6.46a25.78,25.78,0,1,1-36.48,36.44L308,104.42c-55.89-55.89-146.87-55.91-202.79,0a143.4,143.4,0,0,0,0,202.8c55.9,55.91,146.87,55.91,202.8,0L411.68,203.5A25.78,25.78,0,0,1,448.14,240L344.42,343.67A194.32,194.32,0,0,1,206.57,400.68Z"/><path class="cls-1" d="M282.93,205.82a30.22,30.22,0,0,1-30.23,30.23H228.54v24.17a30.23,30.23,0,0,1-60.46,0V236.05H143.91a30.23,30.23,0,1,1,0-60.46h24.17V151.42a30.23,30.23,0,0,1,60.46,0v24.17H252.7A30.23,30.23,0,0,1,282.93,205.82Z"/><circle class="cls-1" cx="580.15" cy="260.14" r="30.01"/><circle class="cls-1" cx="580.15" cy="151.51" r="30.01"/><circle class="cls-1" cx="525.5" cy="205.9" r="30.01"/><circle class="cls-1" cx="634.29" cy="205.9" r="30.01"/></svg>