<svg id="Layer_1" data-name="Layer 1" xmlns="http://www.w3.org/2000/svg" viewBox="0 0 376.23 376.23"><defs><style>.cls-1,.cls-2{fill:#8591e8;}.cls-1{stroke:#4b5582;stroke-miterlimit:10;}.cls-3{fill:#4b5582;}</style></defs><title>matches</title><path class="cls-1" d="M134.36,335a8.23,8.23,0,0,1,2.5-6.24q9.79-9.75,19.55-19.55L199,266.7q24.85-24.85,49.69-49.73a8,8,0,0,1,11.19-.46A7.73,7.73,0,0,1,260,227.6q-9.15,9.21-18.35,18.37l-34.4,34.41q-19.26,19.25-38.52,38.5-10.44,10.42-20.87,20.89c-3.77,3.77-9.58,3.25-12.35-1.11A7.05,7.05,0,0,1,134.36,335Z"/><path class="cls-1" d="M268.93,256.25l-7.81-7.74,7.46-7.42-7.71-7.6,3.48-3.43c.87.93,1.8,2,2.79,3q8,8,16.05,16.05,11.18,11.16,22.34,22.34a10.73,10.73,0,0,1,0,15.42q-13.46,13.47-26.95,26.91c-3.28,3.27-6.55,6.57-9.82,9.85a10.72,10.72,0,0,1-15.35.08Q240.18,310.51,227,297.26q-7.2-7.22-14.42-14.41a4,4,0,0,0-.59-.41l10.76-10.68,7.48,7.58-7.36,7.1c2.7,2.72,5.21,5.24,7.73,7.79l7.41-7.49,7.69,7.88,7.59-7.7c2.58,2.55,5.1,5,7.64,7.52l-7.44,7.68,7.71,7.57-7.76,7.61c1.45,1.38,2.69,2.75,4.12,3.88a5.8,5.8,0,0,0,7.19-.12,42.15,42.15,0,0,0,3.66-3.87L261,309.82l3.16-3.05c1.25-1.2,2.51-2.38,3.74-3.6,1-.95.95-1.07,0-2-1.53-1.52-3.09-3-4.62-4.51-.68-.67-1.31-1.4-2-2.16l7.67-7.34-7.9-7.77,7.79-7.67-7.78-7.63ZM284,286.76c-2.49-2.47-5-5-7.68-7.6l7.61-7.5-7.46-7.55-7.73,7.62,7.67,7.56-7.57,7.45,7.58,7.59Zm7.66-22.53-7.51,7.43,7.66,7.59-7.61,7.45,7.45,7.45,7.63-7.7-7.49-7.3,7.4-7.39Zm-45.93,30.52L238.47,302l7.46,7.39c2.39-2.34,4.86-4.77,7.27-7.15Zm23.22-38.59,7.43,7.53,7.37-7.36-7.5-7.58Zm14.82,45.92-7.39-7.54-7.52,7.5,7.36,7.5Q280.07,305.7,283.75,302.08Z"/><path class="cls-1" d="M114.6,249.48,107,257l7.62,7.6c-2.65,2.62-5.16,5.09-7.77,7.68l7.66,7.44-7.7,7.59,7.68,7.55-7.62,7.53,7.66,7.53-7.6,7.5a52,52,0,0,0,4.21,3.92,5.68,5.68,0,0,0,7-.26,46,46,0,0,0,3.63-3.82l-7.23-7.08,7.52-7.54,7.13,7.25,7.58-7.64-7.24-7.09,7.84-7.78,7.15,7.37,7.51-7.48-7.35-7.22,7.58-7.55,10.6,10.59c-1.24,1.17-2.64,2.45-4,3.78-2.31,2.27-4.59,4.58-6.89,6.86-2.66,2.64-5.36,5.23-8,7.88Q133.41,312.29,122.82,323a11.37,11.37,0,0,1-8.2,3.87,10.1,10.1,0,0,1-7.43-2.93c-5.93-5.89-11.82-11.81-17.73-17.72l-15-15-3.77-3.77a10.6,10.6,0,0,1,0-15.29Q81.85,261,93.05,249.79c2-2,4.06-3.91,6-5.91,4-4,7.89-8,11.84-12,.15-.15.32-.29.49-.44l3,3.19L107,242.05ZM99.39,279.82l-7.54,7.49L99.39,295l7.64-7.71-7.65-7.6,7.54-7.29-7.55-7.53-7.54,7.5Zm-15,14.88,7.45-7.55-7.73-7.49,7.54-7.41L84.53,265l-7.61,7.64,7.34,7.23-7.37,7.23Zm22.41-37.57-7.25-7.26c-2.46,2.46-5,4.93-7.36,7.33l7.25,7.32Zm-7.32,52.55,7.1-7.14-7.45-7.62-7.07,7.34Z"/><path class="cls-1" d="M172.24,285q-4.62-4.65-9.24-9.3l-24.78-24.8Q126.63,239.35,115,227.75a7.77,7.77,0,1,1,11-10.95c7.21,7.15,14.36,14.36,21.54,21.54l35.19,35.19c.18.17.33.36.47.52Z"/><path class="cls-1" d="M191.64,304.34c3.7-3.68,7.32-7.29,11-11l3.92,4,8.93,8.93,22.66,22.66a7.75,7.75,0,1,1-10.8,11.13c-2.74-2.64-5.41-5.37-8.1-8.06L192.1,304.84C192,304.69,191.81,304.52,191.64,304.34Z"/><path class="cls-1" d="M245.86,263.55l7.43-7.41-7.61-7.46,7.74-7.65,7.52,7.68-7.59,7.38,7.76,7.6-7.62,7.57Z"/><path class="cls-1" d="M230.46,279.06l7.7-7.5L230.4,264l7.71-7.59,7.47,7.57L238,271.38l7.71,7.6-7.61,7.6Z"/><path class="cls-1" d="M129.89,279.55l7.33-7.28-7.61-7.42,7.59-7.64,7.5,7.57-7.54,7.39c2.6,2.52,5.12,5,7.57,7.35l-7.62,7.64Z"/><path class="cls-1" d="M121.92,257l-7.47-7.19,7.71-7.5,7.33,7.41c-2.09,2.08-4.29,4.27-6.5,6.44a11.13,11.13,0,0,1-1.08.84Z"/><path class="cls-1" d="M121.91,257l7.53,7.57L122,272l-7.39-7.5c2.18-2.17,4.46-4.42,6.72-6.68a4.74,4.74,0,0,0,.56-.82Z"/><path class="cls-1" d="M122.12,287.55l7.35,7.37-7.42,7.36-7.34-7.41Z"/><path class="cls-1" d="M114.65,279.82l7.39-7.39,7.36,7.35L122,287.16Z"/><path class="cls-1" d="M260.79,279.19l-7.38,7.46L246,279.17l7.47-7.41Z"/><path class="cls-1" d="M305.66,151.46a117.33,117.33,0,0,1-17.32,61.45,5.51,5.51,0,0,1-7.57,1.81,5.52,5.52,0,0,1-1.81-7.57,106.55,106.55,0,1,0-181.69,0,5.5,5.5,0,0,1-9.38,5.76,117.55,117.55,0,1,1,217.77-61.45Z"/><g id="EDJMXQ.tif"><path class="cls-2" d="M173.5,165c1.07,0,2.13-.07,3.2-.08h11.42v1c-4.85,0-9.76,0-14.6.09Z"/><path class="cls-3" d="M184.07,165.45h4.05q-7.31,0-14.6.09c1.06,0,2.12-.07,3.18-.08h7.37m0-1H176.7c-1,0-2.07,0-3.23.08l.06,2c4.84,0,9.75-.08,14.59-.09v-2Z"/><path class="cls-2" d="M246.17,193.57a20,20,0,0,1-10.4-3.12,36.61,36.61,0,0,1-6.45-5.16l-1.86-1.78c-3.82-3.67-7.78-7.46-11.33-11.52a13.7,13.7,0,0,0-9.85-4.76c-.42,0-.88-.06-1.36-.06l-2.23,0c-5.12,0-10-.08-14.58-.08h-11.4c-1,0-2,0-3.12.07l-2.3,0c-.47,0-.93,0-1.38.07A13.58,13.58,0,0,0,160.1,172c-3.56,4.06-7.52,7.86-11.35,11.53l-1.84,1.77a37,37,0,0,1-6.46,5.16,19.87,19.87,0,0,1-10.4,3.12c-6.61,0-12.42-3.8-15.94-10.44a25.87,25.87,0,0,1-3-11.75,184.63,184.63,0,0,1,3-38.84c1.81-9.41,4.85-21.6,12.32-32.42s17.75-16.52,30.3-16.59h.16c7.56,0,14.93,2.37,22.52,7.23a16.58,16.58,0,0,0,8.27,2.89h.93l.46,0a16.89,16.89,0,0,0,7.85-2.86c7.59-4.86,15-7.23,22.52-7.23h.16c12.55.07,22.74,5.65,30.3,16.59s10.5,23,12.31,32.42a183.94,183.94,0,0,1,3,38.84,26,26,0,0,1-3.05,11.75C258.59,189.77,252.77,193.57,246.17,193.57Zm-58-37.29c4.1.05,8.21.15,11.34.24l4.44.11,3.41.07a10.74,10.74,0,0,1,1.46.15l.18,0c5.95.86,10.28,3,13.64,6.61,4.48,4.84,9.47,9.82,14.86,14.81a23.94,23.94,0,0,0,6.87,4.27,5.24,5.24,0,0,0,2,.43,6.2,6.2,0,0,0,4.37-2.17,13.6,13.6,0,0,0,3.78-9.55c.3-15.26-.94-28.71-3.8-41.12-1.9-8.22-4.71-17.7-11.13-25.79-5.38-6.76-12-10.2-19.74-10.2-1.13,0-2.25.09-3.34.21a29.67,29.67,0,0,0-9.38,2.78,42.73,42.73,0,0,0-5.68,3.27l-.17.1a.85.85,0,0,1-.18.1c-.47.21-.9.43-1.32.64l-.15.07a23.71,23.71,0,0,1-5.8,2.2,25.75,25.75,0,0,1-11.41,0,24.06,24.06,0,0,1-5.87-2.24l-1.34-.66a1,1,0,0,1-.2-.09l-.2-.13a43.91,43.91,0,0,0-5.67-3.27,29.87,29.87,0,0,0-9.38-2.77,28.77,28.77,0,0,0-3.34-.21c-7.73,0-14.37,3.44-19.74,10.2-6.43,8.09-9.24,17.57-11.14,25.79-2.85,12.37-4.09,25.82-3.8,41.12a13.69,13.69,0,0,0,3.78,9.55,6.16,6.16,0,0,0,4.38,2.17,5.32,5.32,0,0,0,2-.42,24.15,24.15,0,0,0,6.88-4.28c5.4-5,10.4-10,14.85-14.81,3.37-3.65,7.7-5.75,13.63-6.6l.19,0a11.07,11.07,0,0,1,1.47-.15l3.41-.07,4.44-.11C179.89,156.43,184,156.33,188.14,156.28Z"/><path class="cls-3" d="M219.55,84c12.37.07,22.43,5.57,29.88,16.37s10.44,22.87,12.24,32.24a183.57,183.57,0,0,1,3,38.73,25.57,25.57,0,0,1-3,11.53c-3.45,6.46-9.1,10.17-15.51,10.17A19.45,19.45,0,0,1,236,190a36.65,36.65,0,0,1-6.36-5.1l-1.76-1.68-.08-.08c-3.82-3.67-7.78-7.46-11.32-11.52a14.23,14.23,0,0,0-10.19-4.92c-.49,0-.94-.06-1.39-.06H204l-1.34,0c-5.15,0-10-.08-14.59-.08h-11.4c-1,0-2,0-3.1.07h-.08l-1.34,0h-.89c-.5,0-1,0-1.41.07a14.15,14.15,0,0,0-10.17,4.92c-3.55,4.05-7.5,7.84-11.32,11.5l-.08.08-1.76,1.69a36.14,36.14,0,0,1-6.38,5.1,19.34,19.34,0,0,1-10.13,3c-6.42,0-12.07-3.71-15.5-10.17a25.45,25.45,0,0,1-3-11.53,184.26,184.26,0,0,1,3-38.73c1.81-9.37,4.83-21.49,12.24-32.24S144.31,84.1,156.68,84h.16c7.46,0,14.74,2.34,22.25,7.15a17.14,17.14,0,0,0,8.57,3h1.06l.42,0a17.24,17.24,0,0,0,8-2.93c7.51-4.81,14.78-7.15,22.25-7.15h.16M129.87,183.5a5.75,5.75,0,0,0,2.2-.46,24.47,24.47,0,0,0,7-4.37c5.41-5,10.42-10,14.87-14.84,3.29-3.56,7.53-5.61,13.36-6.45l.18,0a9.39,9.39,0,0,1,1.4-.15l3.41-.07,2.2,0,2.25-.06c3.13-.09,7.26-.19,11.36-.24s8.21.15,11.34.24l2.21.06,2.22,0,3.42.07a9.11,9.11,0,0,1,1.38.15l.21,0c5.82.84,10.05,2.89,13.33,6.45,4.49,4.85,9.5,9.85,14.89,14.84a24.71,24.71,0,0,0,7,4.37,5.83,5.83,0,0,0,2.2.46,6.7,6.7,0,0,0,4.74-2.33,14.13,14.13,0,0,0,3.91-9.88A168.14,168.14,0,0,0,251.19,130c-1.91-8.26-4.74-17.82-11.23-26-5.47-6.89-12.25-10.39-20.14-10.39-1.14,0-2.28.09-3.39.21a30.29,30.29,0,0,0-9.53,2.83,43,43,0,0,0-5.75,3.3l-.17.11-.08,0h0l0,0q-.65.3-1.29.63l-.14.06a23.55,23.55,0,0,1-5.68,2.17,32.66,32.66,0,0,1-5.56.63h-.08a33.7,33.7,0,0,1-5.58-.63,23.66,23.66,0,0,1-5.76-2.21l-.05,0c-.42-.21-.86-.43-1.29-.63l0,0h0l-.1-.06-.16-.1a44.13,44.13,0,0,0-5.73-3.3,30.47,30.47,0,0,0-9.54-2.82,29.74,29.74,0,0,0-3.39-.21c-7.89,0-14.66,3.5-20.13,10.39-6.49,8.16-9.32,17.72-11.23,26-2.87,12.42-4.11,25.91-3.82,41.25a14.1,14.1,0,0,0,3.93,9.89,6.66,6.66,0,0,0,4.72,2.32M219.55,83h-.16c-7.66,0-15.12,2.39-22.79,7.31a16.41,16.41,0,0,1-7.54,2.78l-.45,0h-1a16.13,16.13,0,0,1-8-2.81C172,85.42,164.5,83,156.84,83h-.16C144,83.1,133.62,88.75,126,99.83c-7.52,10.91-10.58,23.16-12.4,32.62a185.25,185.25,0,0,0-3,38.94,26.52,26.52,0,0,0,3.11,12c3.61,6.8,9.58,10.7,16.38,10.7a20.31,20.31,0,0,0,10.65-3.19,36.67,36.67,0,0,0,6.55-5.23L149,184c3.86-3.71,7.86-7.54,11.46-11.65a13.16,13.16,0,0,1,9.49-4.58c.44,0,.88-.07,1.34-.07h.91l1.33,0h.07c1.12,0,2.13-.07,3.1-.07h11.4c4.83,0,9.73,0,14.58.08l1.33,0h.9c.47,0,.91,0,1.32.06a13.27,13.27,0,0,1,9.52,4.59c3.6,4.11,7.6,7.94,11.46,11.65l1.76,1.68a37.33,37.33,0,0,0,6.53,5.23,20.4,20.4,0,0,0,10.66,3.19c6.8,0,12.77-3.9,16.39-10.7a26.52,26.52,0,0,0,3.11-12,185.25,185.25,0,0,0-3-38.94c-1.83-9.46-4.88-21.71-12.4-32.62-7.65-11.08-18-16.73-30.71-16.8Zm-31.48,21.65h.09a34.1,34.1,0,0,0,5.75-.65,25.06,25.06,0,0,0,6.07-2.31c.42-.21.84-.43,1.27-.63a1.51,1.51,0,0,0,.26-.12l.2-.13a41.62,41.62,0,0,1,5.62-3.23,29.43,29.43,0,0,1,9.22-2.74c1.11-.12,2.22-.18,3.28-.2,7.57,0,14.07,3.37,19.34,10,6.38,8,9.16,17.44,11,25.59a166.5,166.5,0,0,1,3.79,41,13.11,13.11,0,0,1-3.64,9.21,5.81,5.81,0,0,1-4,2,4.7,4.7,0,0,1-1.82-.39,23.38,23.38,0,0,1-6.72-4.17C232.48,173,227.49,168,223,163.15c-3.44-3.74-7.87-5.88-13.93-6.76l-.18,0a11.42,11.42,0,0,0-1.53-.16l-3.41-.07L199.5,156c-3.72-.1-7.57-.2-11.36-.24s-7.68.14-11.4.24l-4.44.11-3.41.07a11.58,11.58,0,0,0-1.54.16l-.19,0c-6,.88-10.47,3-13.92,6.76-4.5,4.88-9.49,9.85-14.82,14.79a23.44,23.44,0,0,1-6.73,4.17,4.7,4.7,0,0,1-1.82.39,5.83,5.83,0,0,1-4-2,13.19,13.19,0,0,1-3.64-9.21c-.29-15.23.94-28.63,3.79-41,1.89-8.15,4.66-17.57,11-25.59,5.28-6.64,11.78-10,19.35-10a30.85,30.85,0,0,1,3.28.2,29.75,29.75,0,0,1,9.22,2.73,43,43,0,0,1,5.6,3.23l.22.14.25.12,1.28.63a24.83,24.83,0,0,0,6.06,2.31,34.21,34.21,0,0,0,5.76.65Z"/></g><path class="cls-1" d="M169.34,129.29a6.28,6.28,0,0,1-6.29,6.28h-5v5a6.29,6.29,0,0,1-12.57,0v-5h-5a6.29,6.29,0,0,1,0-12.57h5v-5A6.29,6.29,0,0,1,158,118v5h5A6.28,6.28,0,0,1,169.34,129.29Z"/><circle class="cls-1" cx="224.85" cy="140.58" r="6.24"/><circle class="cls-1" cx="224.85" cy="117.99" r="6.24"/><circle class="cls-1" cx="213.49" cy="129.3" r="6.24"/><circle class="cls-1" cx="236.11" cy="129.3" r="6.24"/></svg>