<svg id="Layer_1" data-name="Layer 1" xmlns="http://www.w3.org/2000/svg" viewBox="0 0 800 800"><defs><style>.cls-1{fill:#8591e8;}.cls-2{fill:#4b5582;}</style></defs><title>medal</title><path class="cls-1" d="M400.11,390.19a9.41,9.41,0,0,1-5.21-1.77c-3.82-2.51-7.8-4.9-11.65-7.21-4.94-3-10.05-6-14.82-9.37-15-10.5-26.36-22.09-34.7-35.42a64.69,64.69,0,0,1-8.83-21.12c-3.09-14.61-.87-26.85,6.77-37.42,7.47-10.33,20.32-16.75,33.54-16.75a38.08,38.08,0,0,1,9,1.07,51.38,51.38,0,0,1,23,12.42c.37.34.77.66,1.23,1l.7.55,1,.84,1-.91a57.31,57.31,0,0,1,17.19-11.55,43.29,43.29,0,0,1,16.87-3.47A41.12,41.12,0,0,1,471,282a42.06,42.06,0,0,1,5.21,17.3c.9,9.14-.89,18.37-5.62,29.06-3.53,7.95-8.9,15.75-16.44,23.86-10.33,11.11-23.21,21.15-40.53,31.58-1.12.68-2.31,1.33-3.45,1.95-1.43.78-2.9,1.58-4.31,2.47A10.88,10.88,0,0,1,400.11,390.19Zm-35-114.25a25.61,25.61,0,0,0-7,1C343.6,281,335.47,295.68,339.23,311a63.87,63.87,0,0,0,11.55,23.72c13.78,17.94,32.5,29.91,47.26,38.34a4,4,0,0,0,1.91.45h0a4.75,4.75,0,0,0,2.14-.48c2.46-1.26,4.78-2.69,7-4.08,12.87-8,29.17-19.21,41.13-35.54,7.11-9.71,11-19.32,11.35-27.81.05-14.85-7.7-25.87-20.21-28.81a29.26,29.26,0,0,0-6.7-.8A27.79,27.79,0,0,0,418,281.61a74.24,74.24,0,0,0-11.39,10.89c-2.09,2.36-4.43,3.61-6.76,3.61s-4.62-1.32-6.51-3.81a43.58,43.58,0,0,0-12.68-11.67A30.79,30.79,0,0,0,365.09,275.94Z"/><path class="cls-2" d="M435.21,262.61a39.63,39.63,0,0,1,34.5,20.14,40.46,40.46,0,0,1,5,16.69c.87,8.87-.88,17.87-5.51,28.31-3.5,7.9-8.63,15.35-16.16,23.45-10.23,11-23,20.95-40.2,31.32-1.1.66-2.22,1.27-3.4,1.92-1.45.78-2.94,1.6-4.39,2.51a9.5,9.5,0,0,1-5,1.74,7.88,7.88,0,0,1-4.38-1.52c-3.85-2.53-7.85-4.93-11.71-7.25-4.92-2.95-10-6-14.73-9.3-14.84-10.39-26.06-21.84-34.28-35A63.15,63.15,0,0,1,326.37,315c-3-14.18-.87-26,6.51-36.24,7.2-9.95,19.58-16.13,32.33-16.13a36.18,36.18,0,0,1,8.68,1,50,50,0,0,1,22.34,12.07c.42.39.85.73,1.31,1.09l.68.55,2,1.67,1.92-1.82A55.68,55.68,0,0,1,418.92,266a41.85,41.85,0,0,1,16.29-3.35M400,375a6.32,6.32,0,0,0,2.82-.64c2.51-1.28,4.86-2.74,7.13-4.15,13-8,29.44-19.38,41.55-35.93,7.29-9.95,11.31-19.85,11.64-28.63v-.11c.05-15.29-8.34-27.16-21.36-30.22a30.71,30.71,0,0,0-7.05-.84,29.27,29.27,0,0,0-17.53,5.93,76.42,76.42,0,0,0-11.63,11.1c-1.79,2-3.74,3.11-5.62,3.11-2.39,0-4.21-1.75-5.32-3.22a45,45,0,0,0-13.11-12.05,32.3,32.3,0,0,0-16.38-4.9,26.88,26.88,0,0,0-7.37,1A28.33,28.33,0,0,0,340.43,289a30.74,30.74,0,0,0-2.65,22.29,65.15,65.15,0,0,0,11.81,24.28c7.33,9.54,19.37,22.56,47.7,38.73A5.41,5.41,0,0,0,400,375m35.26-115.38a45.12,45.12,0,0,0-17.45,3.58A58.78,58.78,0,0,0,400.11,275c-.75-.61-1.33-1-1.86-1.53a53.25,53.25,0,0,0-23.65-12.77,39.66,39.66,0,0,0-9.39-1.11c-13.43,0-26.91,6.52-34.76,17.37-8.53,11.81-9.92,24.86-7,38.61a66.7,66.7,0,0,0,9,21.6c9.09,14.53,21.22,26.14,35.11,35.86,8.53,6,17.8,10.87,26.51,16.61a10.83,10.83,0,0,0,6,2,12.27,12.27,0,0,0,6.56-2.2c2.51-1.58,5.2-2.87,7.74-4.4,14.89-9,28.94-19,40.85-31.85C462,346,467.94,338.07,472,329c4.18-9.45,6.79-19.17,5.75-29.82a43.55,43.55,0,0,0-5.42-17.91,42.62,42.62,0,0,0-37.09-21.63ZM400,372a2.47,2.47,0,0,1-1.17-.25c-17.67-10.09-34.24-21.59-46.81-38a61.83,61.83,0,0,1-11.28-23.16c-3.59-14.61,3.95-28.32,17.84-32.26a24,24,0,0,1,6.56-.92,29.19,29.19,0,0,1,14.85,4.48,42.68,42.68,0,0,1,12.25,11.28c2.23,2.95,4.94,4.41,7.71,4.41s5.46-1.39,7.87-4.12a72.48,72.48,0,0,1,11.15-10.66,26.33,26.33,0,0,1,15.76-5.36,27.67,27.67,0,0,1,6.36.76c11.41,2.68,19.1,12.91,19,27.29-.33,8.92-4.73,18.34-11.06,27-10.86,14.84-25.27,25.6-40.71,35.15-2.27,1.41-4.54,2.81-6.92,4A3.29,3.29,0,0,1,400,372Z"/><path class="cls-1" d="M399.37,457.08c-.77,0-1.56,0-2.33,0a134.45,134.45,0,0,1-34.55-5.24,136.06,136.06,0,0,1-96.32-105.47,136.26,136.26,0,0,1,108.3-159.39,138.11,138.11,0,0,1,25.83-2.45,136.31,136.31,0,0,1,59.6,258.74,8.71,8.71,0,1,1-7.65-15.66,118.89,118.89,0,0,0-52-225.65,120.45,120.45,0,0,0-22.52,2.14,118.79,118.79,0,0,0-59.28,203.17,119.76,119.76,0,0,0,48.84,27.82,118,118,0,0,0,30.16,4.57l1.91,0a8.72,8.72,0,0,1,0,17.44Z"/><path class="cls-2" d="M400.3,186a134.82,134.82,0,0,1,58.94,255.89,7.21,7.21,0,1,1-6.33-13,120.39,120.39,0,0,0-52.65-228.5,121.76,121.76,0,0,0-22.8,2.17,120.27,120.27,0,0,0-60,205.73,121.14,121.14,0,0,0,49.45,28.17,119.3,119.3,0,0,0,30.53,4.63l2,0a7.22,7.22,0,1,1,0,14.43l-2.32,0a132.85,132.85,0,0,1-34.15-5.18,135.56,135.56,0,0,1-55.36-31.53,134.78,134.78,0,0,1,67.22-230.42A136.69,136.69,0,0,1,400.3,186m0-3a139.37,139.37,0,0,0-26.11,2.48A137.71,137.71,0,0,0,305.48,421a138.59,138.59,0,0,0,56.59,32.23,135.92,135.92,0,0,0,34.92,5.3c.79,0,1.59,0,2.38,0a10.22,10.22,0,1,0,0-20.43c-.59,0-1.19,0-1.88,0a116.45,116.45,0,0,1-29.78-4.51,118.17,118.17,0,0,1-48.22-27.47A117.34,117.34,0,0,1,378,205.54a118.19,118.19,0,0,1,22.24-2.12,117.39,117.39,0,0,1,51.33,222.8,10.21,10.21,0,1,0,9,18.36A137.82,137.82,0,0,0,400.3,183Z"/><path class="cls-1" d="M401.63,452.09l-.28.62c-1-.67-2-1.37-3-2.07Z"/><path class="cls-2" d="M398.37,450.64c1,.7,2,1.4,3,2.07l.28-.62-3.26-1.45Z"/><path class="cls-1" d="M492.65,662.25h-.31a8.69,8.69,0,0,1-7.58-5.16L414.3,498.83l-1.05.08c-4.68.36-9.41.54-14.05.54-4.13,0-8.34-.14-12.52-.43l-1.05-.07L315.24,657.07a8.68,8.68,0,0,1-7.55,5.17h-.41a8.73,8.73,0,0,1-7.6-4.45L265.2,596.61l-68.55,15.33a8.71,8.71,0,0,1-9.86-12.05l73.62-165.34-.59-.71A180.89,180.89,0,0,1,351.6,144.08a9,9,0,0,1,2.3-.31,8.72,8.72,0,0,1,2.28,17.13,163.47,163.47,0,0,0-79.42,265.93l.37.42a164.72,164.72,0,0,0,23.24,21.5l1,.77.33.24c1,.71,1.92,1.42,2.89,2.1s2,1.44,3,2.1A162.35,162.35,0,0,0,381.16,481h.11a167.31,167.31,0,0,0,37.31-.17h.13a162.48,162.48,0,0,0,79.08-31.93l.12-.09,1.25-1a165.54,165.54,0,0,0,23.1-21.78l.14-.15A163.36,163.36,0,0,0,562.62,318.6c0-90.11-73.31-163.41-163.42-163.41a8.72,8.72,0,1,1,0-17.44c99.72,0,180.85,81.13,180.85,180.85a181.24,181.24,0,0,1-40.44,114l-.58.72,74.18,166.59a8.7,8.7,0,0,1-8,12.26h0a8.55,8.55,0,0,1-1.89-.21l-68.56-15.33L500.32,657.8a8.76,8.76,0,0,1-7.6,4.45ZM296,615.82l10.32,18.34,61.2-137.46-1.87-.35c-4.59-.86-9.19-1.91-13.69-3.12l-1.24-.34Zm151.77-123c-4.48,1.26-9.07,2.35-13.65,3.24l-1.85.36,61.33,137.73,29.14-51.74a8.75,8.75,0,0,1,7.59-4.45,8.64,8.64,0,0,1,1.9.21l18.61,4.17L500.25,468.62l-1.48,1A179.58,179.58,0,0,1,465.27,487l-1.46.57,33.25,74.69a7.76,7.76,0,0,1-7.06,10.9,7.76,7.76,0,0,1-7.08-4.6l-33.86-76.07ZM269.62,578a8.72,8.72,0,0,1,7.59,4.44L286.57,599,336,488.09l-1.48-.57a179.09,179.09,0,0,1-33.61-17.13l-1.48-1L249.12,582.35l18.6-4.17A9.14,9.14,0,0,1,269.62,578Zm-59.85,13.17,20.52-4.59,56.29-126.44-.89-.72c-3.67-3-7.32-6.16-10.85-9.5l-1.54-1.45ZM524.68,448.84c-3.53,3.38-7.16,6.62-10.8,9.61l-.89.73,56.72,127.38,20.53,4.59-64-143.79Z"/><path class="cls-2" d="M399.2,139.25c98.89,0,179.35,80.46,179.35,179.35a179.72,179.72,0,0,1-40.1,113l-1.17,1.43.75,1.69,73.81,165.76a7.21,7.21,0,0,1-6.6,10.14,7.38,7.38,0,0,1-1.56-.17L536.2,595.39,534,594.9l-1.09,1.94L499,657.07a7.23,7.23,0,0,1-6.29,3.68h-.33a7.17,7.17,0,0,1-6.26-4.28l-70-157.28-.86-1.93-2.11.16c-4.64.36-9.33.54-13.93.54-4.09,0-8.26-.14-12.42-.42l-2.09-.14-.85,1.91-70,157.17a7.17,7.17,0,0,1-6.27,4.27h-.31a7.23,7.23,0,0,1-6.29-3.68l-33.94-60.23L266,594.9l-2.17.49-67.46,15.09a7.62,7.62,0,0,1-1.57.17,7.22,7.22,0,0,1-6.6-10.15L261.4,436l.76-1.7L261,432.88a179.41,179.41,0,0,1,91-287.35,7.33,7.33,0,0,1,1.91-.26,7.22,7.22,0,0,1,1.89,14.18,165,165,0,0,0-80.54,267.93h0l.76.86a166.57,166.57,0,0,0,23.42,21.67c.36.28.73.55,1.1.82l.3.23c.79.59,1.84,1.36,2.93,2.13s2,1.42,3,2.09A163.89,163.89,0,0,0,381,482.53h.19a165.4,165.4,0,0,0,18,1,167.4,167.4,0,0,0,19.47-1.13h0l.17,0a164,164,0,0,0,79.82-32.23l.16-.12h0c.41-.3.81-.6,1.22-.92a166.38,166.38,0,0,0,23.28-21.95l.06-.07,0,0,.07-.07A164.86,164.86,0,0,0,564.12,318.6c0-90.94-74-164.91-164.92-164.91a7.22,7.22,0,1,1,0-14.44m193.63,454-2.43-5.44L528.45,448.7l-1.73-3.9-3.09,3c-3.49,3.36-7.1,6.57-10.71,9.53l-1.76,1.45.93,2.09L568,586.48l.61,1.38,1.47.33L587,592l5.83,1.3m-385.65,0L213,592l16.88-3.77,1.48-.33.61-1.38,55.52-124.7.93-2.1-1.79-1.45c-3.64-2.94-7.26-6.11-10.76-9.42l-3.08-2.91-1.72,3.87L209.61,587.82l-2.43,5.45M490,571.65a6.25,6.25,0,0,1-5.71-3.71L451,493.05l-1.05-2.36-2.5.7c-4.43,1.24-9,2.32-13.53,3.21l-3.7.72,1.53,3.44L491.05,632l2.43,5.45,2.93-5.2,27.67-49.13a7.25,7.25,0,0,1,6.29-3.69,7,7,0,0,1,1.58.18l15.69,3.51,5.82,1.3L551,579l-48.7-109.38-1.44-3.24L498,468.34a178.79,178.79,0,0,1-33.22,17.26l-2.93,1.14,1.28,2.87,32.61,73.25a6.24,6.24,0,0,1-3.16,8.24,6.23,6.23,0,0,1-2.53.55M246.54,584.46l5.82-1.3L268,579.65a6.89,6.89,0,0,1,1.58-.17,7.2,7.2,0,0,1,6.28,3.67l7.89,14,2.93,5.2,2.43-5.45,47.53-106.76,1.28-2.89L335,486.12a178,178,0,0,1-33.34-17l-2.94-1.92-1.43,3.21L249,579l-2.42,5.45m60,53L309,632l59.21-133,1.54-3.47-3.73-.7c-4.55-.86-9.12-1.9-13.58-3.1l-2.47-.67-1.05,2.34L295,614.52l-.61,1.38.74,1.31,8.49,15.08,2.93,5.2M399.2,136.25a10.22,10.22,0,1,0,0,20.44c89.28,0,161.92,72.63,161.92,161.91A161.82,161.82,0,0,1,521.27,425l-.12.13a163.72,163.72,0,0,1-22.9,21.6c-.42.32-.84.64-1.27,1l-.09.08a161,161,0,0,1-78.36,31.64h0a165,165,0,0,1-37.14.16h0a160.53,160.53,0,0,1-72.86-26.83c-1-.67-2-1.37-3-2.07s-1.92-1.38-2.86-2.08c-.45-.33-.91-.66-1.35-1a164.08,164.08,0,0,1-23-21.31h0l-.1-.11a162,162,0,0,1,78.42-263.78,10.22,10.22,0,0,0-2.67-20.08,10.09,10.09,0,0,0-2.7.37c-79.09,21.53-134.34,93.89-134.34,176a182.05,182.05,0,0,0,41.8,116.19L185.42,599.28a10.22,10.22,0,0,0,9.34,14.37,10.55,10.55,0,0,0,2.22-.24l67.46-15.09,33.93,60.22a10.23,10.23,0,0,0,8.91,5.21h.48a10.21,10.21,0,0,0,8.85-6.06l70-157.16c4.19.28,8.41.43,12.62.43,4.72,0,9.46-.19,14.16-.55l70,157.28a10.21,10.21,0,0,0,8.86,6.06h.47a10.2,10.2,0,0,0,8.9-5.21l33.93-60.22L603,613.41a10.48,10.48,0,0,0,2.22.24,10.21,10.21,0,0,0,9.34-14.37L540.77,433.53A182.15,182.15,0,0,0,581.55,318.6c0-100.54-81.8-182.35-182.35-182.35ZM587.66,589l-16.89-3.78L514.83,459.61q5.63-4.62,10.88-9.69L587.66,589Zm-375.31,0,61.46-138q5.28,5,10.93,9.57l-55.51,124.7L212.35,589ZM490,574.65a9.26,9.26,0,0,0,8.43-13l-32.61-73.25a181.09,181.09,0,0,0,33.78-17.54l48.7,109.38-15.7-3.51a10,10,0,0,0-2.23-.25,10.22,10.22,0,0,0-8.9,5.21l-27.68,49.14L434.45,497.54q6.94-1.35,13.76-3.27l33.34,74.89a9.25,9.25,0,0,0,8.45,5.49Zm-238.3,5.58L300,471.64a180,180,0,0,0,33.89,17.28L286.41,595.68l-7.89-14a10.21,10.21,0,0,0-8.9-5.2,10,10,0,0,0-2.23.24l-15.69,3.51Zm54.51,50.59-8.5-15.08,53.9-121.07q6.84,1.84,13.81,3.16l-59.21,133Z"/></svg>