<svg xmlns="http://www.w3.org/2000/svg" viewBox="0 0 200 200"><defs><style>.cls-1{fill:#ffb8cb;}.cls-2{fill:#d7864f;}.cls-3{fill:#ffc5ae;}.cls-4{fill:#fff9f3;}.cls-5{fill:#35190e;}.cls-6{fill:#fff;}.cls-7{fill:none;stroke:#564f4a;stroke-linecap:round;stroke-linejoin:round;stroke-width:3px;}.cls-8{fill:#a57a5d;}</style></defs><title>bear</title><g id="objects"><circle class="cls-1" cx="100" cy="100" r="78.57" transform="translate(-41.42 100) rotate(-45)"/><circle class="cls-2" cx="48.99" cy="70.92" r="19.55" transform="translate(-28.4 108.86) rotate(-81.48)"/><circle class="cls-3" cx="51.67" cy="73.59" r="9.42" transform="translate(-24.09 25.16) rotate(-22.34)"/><circle class="cls-2" cx="151.01" cy="70.92" r="19.55" transform="matrix(0.98, -0.18, 0.18, 0.98, -10.26, 28.19)"/><circle class="cls-3" cx="148.33" cy="73.59" r="9.42" transform="translate(23.89 182.83) rotate(-67.66)"/><ellipse class="cls-2" cx="99.41" cy="108.94" rx="58.66" ry="55.16"/><path class="cls-4" d="M98.9,116c-16.53,1.51-23,11.38-23,18a12,12,0,0,0,23.58,2.9A12,12,0,0,0,123,134C123,127.36,113.14,116,98.9,116Z"/><circle class="cls-5" cx="70.49" cy="112.41" r="6.87"/><path class="cls-6" d="M66.51,112.41a3.21,3.21,0,0,1,4.34-4.34c-.57.42-1,.73-1.36,1.06s-.69.61-1,.92-.61.63-.93,1S66.93,111.85,66.51,112.41Z"/><circle class="cls-5" cx="128.39" cy="112.41" r="6.87"/><path class="cls-6" d="M124.41,112.41a3.21,3.21,0,0,1,4.34-4.34c-.57.42-1,.73-1.36,1.06s-.69.61-1,.92-.61.63-.93,1S124.83,111.85,124.41,112.41Z"/><path class="cls-7" d="M98.82,131.9c.37.75,0,3.35,0,3.35s-2.71,6.11-10.41,3.41"/><path class="cls-7" d="M100.05,131.9c-.37.75,0,3.35,0,3.35s2.72,6.11,10.41,3.41"/><path class="cls-8" d="M104.32,124.44H94.41c-1.35,0-2.19,1.22-1.49,2.18,1.69,2.28,4.45,5.55,6.45,5.55s4.76-3.27,6.44-5.55C106.52,125.66,105.68,124.44,104.32,124.44Z"/></g></svg>