<svg xmlns="http://www.w3.org/2000/svg" xmlns:xlink="http://www.w3.org/1999/xlink" viewBox="0 0 200 200"><defs><style>.cls-1,.cls-3,.cls-9{fill:none;}.cls-2{fill:#d8ef91;}.cls-3,.cls-9{stroke:#35190e;}.cls-3,.cls-6,.cls-9{stroke-miterlimit:10;}.cls-3{stroke-width:6px;}.cls-4,.cls-6{fill:#35190e;}.cls-5{fill:#ffd45c;}.cls-6{stroke:#fff;stroke-width:2px;}.cls-7{fill:#fff;}.cls-8{clip-path:url(#clip-path);}.cls-9{stroke-linecap:round;stroke-width:9px;}.cls-10{fill:#73d3dd;}</style><clipPath id="clip-path"><path class="cls-1" d="M51.17,80.58a53.85,53.85,0,1,0,97.66,0C135.93,89.54,118.8,95,100,95S64.07,89.54,51.17,80.58Z"/></clipPath></defs><title>bee</title><g id="objects"><circle class="cls-2" cx="100" cy="100" r="78.57" transform="translate(-41.42 100) rotate(-45)"/><path class="cls-3" d="M80.54,73.47A33.85,33.85,0,0,0,61,40.68"/><circle class="cls-4" cx="60.25" cy="38.08" r="7.53" transform="translate(2.01 79.17) rotate(-67.49)"/><path class="cls-3" d="M119.46,73.47A33.85,33.85,0,0,1,139,40.68"/><path class="cls-4" d="M132.48,40a7.53,7.53,0,1,0,5.32-9.22A7.52,7.52,0,0,0,132.48,40Z"/><path class="cls-5" d="M51.17,80.58a53.85,53.85,0,1,0,97.66,0C135.93,89.54,118.8,95,100,95S64.07,89.54,51.17,80.58Z"/><path class="cls-4" d="M100,49.43A53.84,53.84,0,0,0,51.17,80.58C64.07,89.54,81.2,95,100,95s35.93-5.46,48.83-14.42A53.84,53.84,0,0,0,100,49.43Z"/><circle class="cls-6" cx="80.33" cy="73.27" r="6.64"/><path class="cls-7" d="M76.48,73.27a3.09,3.09,0,0,1,4.2-4.19c-.55.42-1,.73-1.31,1s-.65.59-1,.89a11.8,11.8,0,0,0-.89,1C77.21,72.32,76.9,72.73,76.48,73.27Z"/><circle class="cls-6" cx="119.67" cy="73.27" r="6.64"/><path class="cls-7" d="M115.83,73.27A3.08,3.08,0,0,1,120,69.08c-.54.42-1,.73-1.3,1s-.66.59-1,.89-.58.59-.89,1S116.25,72.73,115.83,73.27Z"/><g class="cls-8"><line class="cls-9" x1="34.05" y1="101.42" x2="169.85" y2="101.42"/><line class="cls-9" x1="42.36" y1="118.87" x2="169.85" y2="118.87"/><line class="cls-9" x1="42.36" y1="134.65" x2="169.85" y2="134.65"/><line class="cls-9" x1="42.36" y1="152.09" x2="169.85" y2="152.09"/></g><path class="cls-10" d="M40,123.64c7.37-14.58,47.24-27.88,47.24-27.88s12.93,40,5.56,54.57A29.58,29.58,0,1,1,40,123.64Z"/><path class="cls-10" d="M160,123.64c-7.37-14.58-47.24-27.88-47.24-27.88s-12.93,40-5.56,54.57A29.58,29.58,0,1,0,160,123.64Z"/></g></svg>