<svg xmlns="http://www.w3.org/2000/svg" viewBox="0 0 200 200"><defs><style>.cls-1{fill:#54d3d0;}.cls-2{fill:#fcecdb;}.cls-3{fill:#fff;}.cls-4{fill:#35190e;}.cls-5{fill:#ffa81d;}</style></defs><title>bird</title><g id="objects"><circle class="cls-1" cx="100" cy="100" r="78.57" transform="translate(-41.42 100) rotate(-45)"/><path class="cls-2" d="M94.87,123.3h10.26a123.6,123.6,0,0,1,18.15-71.55A69.53,69.53,0,0,0,100,48a69.53,69.53,0,0,0-23.28,3.79A123.6,123.6,0,0,1,94.87,123.3Z"/><path class="cls-3" d="M131.43,110.22a59.07,59.07,0,0,0,25.81-15.37A63.06,63.06,0,0,0,156,88.24c-4.7-19-17-30.89-32.7-36.49a123.6,123.6,0,0,0-18.15,71.55H94.87A123.6,123.6,0,0,0,76.72,51.75C61,57.35,48.72,69.26,44,88.24a63.06,63.06,0,0,0-1.26,6.61,59.07,59.07,0,0,0,25.81,15.37c-9,.09-16.95,7.36-21.58,16.15,8.48,19,27.52,29,53,29s44.53-9.94,53-29C148.38,117.58,140.4,110.31,131.43,110.22Z"/><path class="cls-2" d="M68.57,110.22A59.07,59.07,0,0,1,42.76,94.85,61.29,61.29,0,0,0,43.22,114c0,.19.08.38.12.57A53.15,53.15,0,0,0,47,126.37C51.62,117.58,59.6,110.31,68.57,110.22Z"/><path class="cls-2" d="M156.78,114a61.29,61.29,0,0,0,.46-19.17,59.07,59.07,0,0,1-25.81,15.37c9,.09,16.95,7.36,21.58,16.15a53.15,53.15,0,0,0,3.65-11.78C156.7,114.4,156.75,114.21,156.78,114Zm-2.71-15.31c.15.41.29.82.43,1.24C154.36,99.53,154.22,99.12,154.07,98.71Z"/><circle class="cls-4" cx="71.84" cy="108.02" r="6.64"/><path class="cls-3" d="M68,108a3.09,3.09,0,0,1,4.2-4.2c-.55.42-1,.73-1.31,1.05s-.65.59-.95.89-.59.6-.9.95S68.41,107.47,68,108Z"/><circle class="cls-4" cx="127.79" cy="108.02" r="6.64"/><path class="cls-3" d="M124,108a3.09,3.09,0,0,1,4.19-4.2c-.54.42-.95.73-1.3,1.05s-.66.59-1,.89-.58.6-.89.95S124.37,107.47,124,108Z"/><path class="cls-5" d="M90.32,127.21c0-3.25,19.36-3.25,19.36,0s-4.33,5.87-9.68,5.87S90.32,130.45,90.32,127.21Z"/><path class="cls-2" d="M94.58,48.48q2.13-5,4.27-10A11.91,11.91,0,0,1,101,34.66c3.08-3.19,9.21-1.6,11,2.46s-.36,9.15-4.16,11.43-8.73,2.08-12.81.34"/><path class="cls-5" d="M119.51,125c0,5.19-39,5.19-39,0s8.74-9.39,19.51-9.39S119.51,119.84,119.51,125Z"/></g></svg>