<svg xmlns="http://www.w3.org/2000/svg" viewBox="0 0 200 200"><defs><style>.cls-1{fill:#ffd16c;}.cls-2{fill:#ff7171;}.cls-3{fill:#ffc0c0;}.cls-4{fill:#35190e;}.cls-5{fill:#fff;}</style></defs><title>crab</title><g id="objects"><circle class="cls-1" cx="100" cy="100" r="78.57" transform="translate(-41.42 100) rotate(-45)"/><path class="cls-2" d="M58.24,150c.49,4.4,4.18,8.78,8.58,8.35,4.85-.47,7.37-5.85,9-10.45,2.3-6.66,4.12-16.14-5-15.21C62.42,133.56,57.38,142.2,58.24,150Z"/><path class="cls-2" d="M43,134.1a12.13,12.13,0,0,0-1.3,7.36,7,7,0,0,0,4.67,5.5c3.32.9,6.66-1.39,8.95-4,2.87-3.24,10.78-15.65,5.42-19.42S45,130,43,134.1Z"/><path class="cls-2" d="M33.71,117.56a5.08,5.08,0,0,0,3,4.6,14.8,14.8,0,0,0,5.68,1.18c5.22.38,23-.81,13.92-9.1C52.53,110.75,34.25,110.35,33.71,117.56Z"/><path class="cls-2" d="M157,134.1a12.13,12.13,0,0,1,1.3,7.36,7,7,0,0,1-4.67,5.5c-3.32.9-6.66-1.39-9-4-2.87-3.24-10.78-15.65-5.42-19.42S155,130,157,134.1Z"/><path class="cls-2" d="M141.76,150c-.49,4.4-4.18,8.78-8.58,8.35-4.85-.47-7.37-5.85-9-10.45-2.3-6.66-4.12-16.14,5-15.21C137.58,133.56,142.62,142.2,141.76,150Z"/><path class="cls-2" d="M166.29,117.56a5.08,5.08,0,0,1-3,4.6,14.8,14.8,0,0,1-5.68,1.18c-5.22.38-23-.81-13.92-9.1C147.47,110.75,165.75,110.35,166.29,117.56Z"/><path class="cls-2" d="M168.29,96.4c10.35,1.16,22-3.9,28.63-12a4.33,4.33,0,0,0-.33-6.27c-6.48-5.23-13.53-10-22.11-12.1-9-2.16-26.19-1.32-27.69,9.85C145.43,86,158.69,95.33,168.29,96.4Z"/><path class="cls-2" d="M163.11,52.72a3,3,0,0,0-3.64-3.8,35.2,35.2,0,0,0-8,3.08c-7.36,4-15.76,25.52-1.2,23.73,4.21-.52,7.26-6.58,8.84-9.81C159.93,64.23,161.55,57.54,163.11,52.72Z"/><path class="cls-2" d="M31.71,96.4c-10.35,1.16-22-3.9-28.63-12a4.33,4.33,0,0,1,.33-6.27c6.48-5.23,13.53-10,22.11-12.1,9-2.16,26.19-1.32,27.69,9.85C54.57,86,41.31,95.33,31.71,96.4Z"/><path class="cls-2" d="M36.89,52.72a3,3,0,0,1,3.64-3.8,35.2,35.2,0,0,1,8,3.08c7.36,4,15.76,25.52,1.2,23.73-4.21-.52-7.26-6.58-8.84-9.81C40.07,64.23,38.45,57.54,36.89,52.72Z"/><path class="cls-3" d="M100,125.35c-24,0-44.66-6.55-54.16-22.94.07,29.35,24.29,40.25,54.16,40.25s54.09-10.9,54.16-40.25C144.66,118.8,124,125.35,100,125.35Z"/><path class="cls-2" d="M100,125.35c24,0,44.66-6.55,54.16-22.94v-.13a52.34,52.34,0,0,0-4.72-21.77C141,61.91,122,52.06,100,52.06S59,61.91,50.56,80.51a52.34,52.34,0,0,0-4.72,21.77v.13C55.34,118.8,76,125.35,100,125.35Z"/><circle class="cls-4" cx="72.02" cy="104.11" r="6.64"/><path class="cls-5" d="M68.18,104.11a3.08,3.08,0,0,1,4.19-4.19c-.54.42-1,.73-1.3,1s-.66.6-1,.89-.58.6-.89,1S68.6,103.57,68.18,104.11Z"/><circle class="cls-4" cx="127.98" cy="104.11" r="6.64"/><path class="cls-5" d="M124.13,104.11a3.09,3.09,0,0,1,4.2-4.19c-.55.42-1,.73-1.3,1s-.66.6-1,.89-.59.6-.89,1S124.55,103.57,124.13,104.11Z"/></g></svg>