<svg xmlns="http://www.w3.org/2000/svg" viewBox="0 0 200 200"><defs><style>.cls-1{fill:#d8ef91;}.cls-2{fill:#f9c791;}.cls-3{fill:#35190e;}.cls-4{fill:#fff;}.cls-5{fill:#ffc5ae;}.cls-6{fill:#d7864f;}.cls-7{fill:#fffaf0;}.cls-8{fill:none;stroke:#998271;stroke-linecap:round;stroke-linejoin:round;stroke-width:3px;}.cls-9{fill:#a57a5d;}</style></defs><title>deer</title><g id="objects"><circle class="cls-1" cx="100" cy="100" r="78.57" transform="translate(-41.42 100) rotate(-45)"/><path class="cls-2" d="M150,82.11C140.73,60,122.18,50.74,100,50.74S59.27,60,50,82.11c-3.14,7.47-6.27,19.58-6,27.61.92,28.17,22.14,43.7,56,43.7s55.09-15.53,56-43.7C156.28,101.69,153.15,89.58,150,82.11Z"/><circle class="cls-3" cx="72.02" cy="107.19" r="6.64"/><path class="cls-4" d="M68.18,107.19a3.09,3.09,0,0,1,4.19-4.2c-.54.42-1,.73-1.3,1.05s-.66.59-1,.89-.58.6-.89.95S68.6,106.64,68.18,107.19Z"/><circle class="cls-3" cx="127.98" cy="107.19" r="6.64"/><path class="cls-4" d="M124.13,107.19a3.09,3.09,0,0,1,4.2-4.2c-.55.42-1,.73-1.3,1.05s-.66.59-1,.89-.59.6-.89.95S124.55,106.64,124.13,107.19Z"/><path class="cls-5" d="M42,70.41a28.08,28.08,0,0,0-12.49-5,22.35,22.35,0,0,0,10.11,17.5c2.93,1.84,8.31,2.72,12.67,1.79A28.27,28.27,0,0,0,42,70.41Z"/><path class="cls-6" d="M58.74,75.58c-1.42-6.15-24.15-19.53-26.39-18.72-1.72.61-2.44,2.64-2.71,4.45a21.13,21.13,0,0,0-.18,4.13,28.08,28.08,0,0,1,12.49,5A28.27,28.27,0,0,1,52.24,84.73C56.64,83.8,60,81,58.74,75.58Z"/><path class="cls-5" d="M158.05,70.41a28.08,28.08,0,0,1,12.49-5,22.35,22.35,0,0,1-10.11,17.5c-2.93,1.84-8.31,2.72-12.67,1.79A28.27,28.27,0,0,1,158.05,70.41Z"/><path class="cls-6" d="M141.26,75.58c1.42-6.15,24.15-19.53,26.39-18.72,1.72.61,2.44,2.64,2.71,4.45a21.13,21.13,0,0,1,.18,4.13,27.7,27.7,0,0,0-22.78,19.29C143.36,83.8,140,81,141.26,75.58Z"/><path class="cls-6" d="M150,82.11C140.73,60,122.18,50.74,100,50.74S59.27,60,50,82.11c-3.14,7.47-6.27,19.58-6,27.61,0,.66.06,1.31.11,2A48,48,0,0,1,68.73,77.31c5.65-3,12.93-4.6,18.15-.93,4.29,3,5.77,8.61,6.67,13.78a141.79,141.79,0,0,1,1.84,32c-.08,1.41-.4.8-.39,2.22a6.23,6.23,0,0,0,5-1.71,6.23,6.23,0,0,0,5,1.71c0-1.42-.31-.81-.39-2.22a141.79,141.79,0,0,1,1.84-32c.9-5.17,2.38-10.76,6.67-13.78,5.22-3.67,12.5-2,18.15.93a48,48,0,0,1,24.63,34.36c0-.64.09-1.29.11-2C156.28,101.69,153.15,89.58,150,82.11Z"/><ellipse class="cls-7" cx="100" cy="130.08" rx="15.68" ry="12.25"/><path class="cls-8" d="M99.4,124.21c.37.72,0,3.24,0,3.24s-2.62,5.9-10.05,3.3"/><path class="cls-8" d="M100.6,124.21c-.37.72,0,3.24,0,3.24s2.62,5.9,10.05,3.3"/><path class="cls-9" d="M104.72,117H95.15c-1.32,0-2.13,1.18-1.44,2.1,1.62,2.21,4.29,5.37,6.22,5.37s4.6-3.16,6.23-5.37C106.84,118.18,106,117,104.72,117Z"/><path class="cls-9" d="M78.12,53.71c3.43-7.14,2.88-18.6-2.37-22.26-2.23-1.56-5.91-1.1-7,1.39-1.27,2.9,1.23,6.91-1,9.15-1.56,1.57-4.41.78-5.77-1s-1.67-4-2-6.21-1-4.49-2.69-5.88c-2.48-2.32-6.83-1.51-9.09,1s-2.78,6.22-2.43,9.6c.9,8.75,8.35,17.46,17.14,19.87a15.46,15.46,0,0,0,2.43,3c2.79,2.63,7.36,3.81,10.52,1.63,2.93-2,3.63-6.25,2.58-9.66C78.31,54.2,78.22,54,78.12,53.71Z"/><path class="cls-9" d="M121.88,53.71c-3.43-7.14-2.88-18.6,2.37-22.26,2.23-1.56,5.91-1.1,7,1.39,1.27,2.9-1.23,6.91,1,9.15,1.56,1.57,4.41.78,5.77-1s1.67-4,2-6.21,1-4.49,2.69-5.88c2.48-2.32,6.83-1.51,9.09,1s2.78,6.22,2.43,9.6c-.9,8.75-8.35,17.46-17.14,19.87a15.46,15.46,0,0,1-2.43,3c-2.79,2.63-7.36,3.81-10.52,1.63-2.93-2-3.63-6.25-2.58-9.66C121.69,54.2,121.78,54,121.88,53.71Z"/></g></svg>