<svg xmlns="http://www.w3.org/2000/svg" viewBox="0 0 200 200"><defs><style>.cls-1{fill:#d8ef91;}.cls-2{fill:#53b3c9;}.cls-3{fill:#63c6e0;}.cls-4{fill:#35190e;}.cls-5{fill:#fff;}.cls-6{fill:#6bdbf9;}</style></defs><title>elephant</title><g id="objects"><circle class="cls-1" cx="100.29" cy="100" r="78.57" transform="translate(-41.34 100.2) rotate(-45)"/><path class="cls-2" d="M68.4,97.54c1.56,17-5.31,29.58-15.23,29.58S24.31,114.53,20.8,97.54C16.9,78.68,31.43,61.8,43.41,61.8S66.66,78.68,68.4,97.54Z"/><path class="cls-2" d="M131.6,97.54c-1.56,17,5.31,29.58,15.23,29.58s28.86-12.59,32.37-29.58c3.9-18.86-10.63-35.74-22.61-35.74S133.34,78.68,131.6,97.54Z"/><ellipse class="cls-3" cx="99.46" cy="103.03" rx="51.36" ry="50.64"/><circle class="cls-4" cx="71.48" cy="108.85" r="6.64"/><path class="cls-5" d="M67.63,108.85a3.09,3.09,0,0,1,4.2-4.2c-.55.42-1,.73-1.31,1s-.65.59-1,.89-.59.6-.89,1S68.05,108.3,67.63,108.85Z"/><circle class="cls-4" cx="127.43" cy="108.85" r="6.64"/><path class="cls-5" d="M123.59,108.85a3.09,3.09,0,0,1,4.19-4.2c-.54.42-.94.73-1.3,1s-.66.59-1,.89-.59.6-.9,1S124,108.3,123.59,108.85Z"/><path class="cls-6" d="M119.21,123a18.31,18.31,0,1,0-34.91,7.71,60.39,60.39,0,0,1,2,8.93,33.44,33.44,0,0,1,.21,3.73,36.75,36.75,0,0,1-.46,4c-1.41,6.37-7.22,9.69-8,16.33,0,2.49,1.86,6.08,5,4.82,0,4.05,4.89,3.69,6.2,3.41C98.23,169.62,119.21,156.93,119.21,123Z"/></g></svg>