<svg xmlns="http://www.w3.org/2000/svg" viewBox="0 0 200 200"><defs><style>.cls-1{fill:#54d3d0;}.cls-2{fill:#35190e;}.cls-3{fill:#ffa81d;}.cls-4{fill:#ffc5ae;}.cls-5{fill:#fffaf0;}.cls-6{fill:#fff;}.cls-7{fill:none;stroke:#998271;stroke-linecap:round;stroke-linejoin:round;stroke-width:3px;}</style></defs><title>fox</title><g id="objects"><circle class="cls-1" cx="100" cy="100" r="78.57" transform="translate(-41.42 100) rotate(-45)"/><path class="cls-2" d="M50.76,42.77l13.65-.36A58.71,58.71,0,0,0,45,33.71c-4.33-1-7.63,3-7,8.41a99.7,99.7,0,0,0,3.79,18.65l3-13.1A6.34,6.34,0,0,1,50.76,42.77Z"/><path class="cls-3" d="M84.11,60.5a98.65,98.65,0,0,0-19.7-18.09l-13.65.36a6.34,6.34,0,0,0-6,4.9l-3,13.1A128.36,128.36,0,0,0,52.8,86Z"/><path class="cls-4" d="M59.06,86.85c-4.86-9-9.36-19.4-10.44-32.47-.32-3.87,2.2-6.73,5.37-6,11.11,2.51,20.53,9.78,28.9,19.37Z"/><path class="cls-2" d="M149.24,42.77l-13.65-.36A58.71,58.71,0,0,1,155,33.71c4.33-1,7.63,3,7,8.41a99.7,99.7,0,0,1-3.79,18.65l-3-13.1A6.34,6.34,0,0,0,149.24,42.77Z"/><path class="cls-3" d="M115.89,60.5a98.65,98.65,0,0,1,19.7-18.09l13.65.36a6.34,6.34,0,0,1,6,4.9l3,13.1A128.36,128.36,0,0,1,147.2,86Z"/><path class="cls-4" d="M140.94,86.85c4.86-9,9.36-19.4,10.44-32.47.32-3.87-2.2-6.73-5.37-6-11.11,2.51-20.53,9.78-28.9,19.37Z"/><path class="cls-3" d="M149.61,82.94c-9.29-22.12-27.83-31.37-50-31.37s-40.73,9.25-50,31.37c-3.13,7.47-6.26,19.58-6,27.61.93,28.18,22.14,43.7,56,43.7s55.08-15.52,56-43.7C155.87,102.52,152.75,90.41,149.61,82.94Z"/><path class="cls-5" d="M104.15,125.18c-1.49-.09-3-.14-4.55-.14q-1.91,0-3.75.09c1-16.24-54.49-16.57-59-8.87C39,128.38,48,137.32,57.22,142.79A96.1,96.1,0,0,0,86.58,154s0-.08,0-.11a73.48,73.48,0,0,0,26.71-.15l.09.26a96.19,96.19,0,0,0,29.36-11.25c9.23-5.47,18.26-14.41,20.4-26.53C158.64,108.56,103.15,108.93,104.15,125.18Z"/><circle class="cls-2" cx="71.62" cy="108.02" r="6.64"/><path class="cls-6" d="M67.77,108a3.09,3.09,0,0,1,4.2-4.2c-.55.42-1,.73-1.31,1.05s-.65.59-1,.89-.59.6-.89.95S68.19,107.47,67.77,108Z"/><circle class="cls-2" cx="127.58" cy="108.02" r="6.64"/><path class="cls-6" d="M123.73,108a3.09,3.09,0,0,1,4.2-4.2c-.55.42-1,.73-1.31,1.05s-.66.59-1,.89-.59.6-.9.95S124.15,107.47,123.73,108Z"/><ellipse class="cls-5" cx="99.6" cy="130.91" rx="15.68" ry="12.25"/><path class="cls-7" d="M99,125c.36.72,0,3.24,0,3.24s-2.62,5.91-10.06,3.3"/><path class="cls-7" d="M100.19,125c-.36.72,0,3.24,0,3.24s2.63,5.91,10.06,3.3"/><path class="cls-2" d="M104.32,117.83H94.74c-1.31,0-2.12,1.18-1.44,2.1,1.63,2.21,4.3,5.37,6.23,5.37s4.6-3.16,6.23-5.37C106.44,119,105.63,117.83,104.32,117.83Z"/></g></svg>