<svg xmlns="http://www.w3.org/2000/svg" viewBox="0 0 200 200"><defs><style>.cls-1{fill:#ffb8cb;}.cls-2{fill:#dd6e00;stroke:#dd6e00;stroke-miterlimit:10;stroke-width:4px;}.cls-3{fill:#ffd45c;}.cls-4{fill:#ff9f7d;}.cls-5{fill:#ffe388;}.cls-6{fill:#fff9f3;}.cls-7{fill:#35190e;}.cls-8{fill:#fff;}.cls-9{fill:none;stroke:#564f4a;stroke-linecap:round;stroke-linejoin:round;stroke-width:3px;}.cls-10{fill:#a57a5d;}</style></defs><title>lion</title><g id="objects"><circle class="cls-1" cx="100" cy="100" r="78.57" transform="translate(-41.42 100) rotate(-45)"/><circle class="cls-2" cx="57.39" cy="136.17" r="11.21"/><circle class="cls-2" cx="71.18" cy="147.25" r="11.21"/><circle class="cls-2" cx="89.6" cy="153.42" r="9.13"/><circle class="cls-2" cx="142.61" cy="136.17" r="11.21"/><circle class="cls-2" cx="128.82" cy="147.25" r="11.21"/><circle class="cls-2" cx="110.4" cy="153.42" r="9.13"/><circle class="cls-2" cx="71.45" cy="57.17" r="16.19"/><circle class="cls-2" cx="100.64" cy="52.32" r="19.56"/><circle class="cls-2" cx="50.62" cy="72.89" r="12.64" transform="translate(-29.97 35.72) rotate(-30.46)"/><circle class="cls-2" cx="40.35" cy="107.48" r="11.21"/><path class="cls-2" d="M33.25,83.54a11.21,11.21,0,1,0,15.85,0A11.22,11.22,0,0,0,33.25,83.54Z"/><circle class="cls-2" cx="46.49" cy="123.94" r="9.85" transform="translate(-85.79 119.06) rotate(-67.33)"/><circle class="cls-2" cx="128.55" cy="57.17" r="16.19"/><circle class="cls-2" cx="149.38" cy="72.89" r="12.64" transform="translate(-12.69 36.02) rotate(-13.19)"/><circle class="cls-2" cx="159.65" cy="107.48" r="11.21"/><circle class="cls-2" cx="158.82" cy="91.47" r="11.21"/><circle class="cls-2" cx="153.51" cy="123.94" r="9.85" transform="translate(-35.91 68.75) rotate(-22.67)"/><path class="cls-3" d="M71.67,73.26c0,9.37-8,17-18,17S35.77,83.41,35.77,74s8-17,17.95-17S71.67,63.89,71.67,73.26Z"/><ellipse class="cls-4" cx="56.17" cy="75.58" rx="8.65" ry="8.18"/><ellipse class="cls-3" cx="147.37" cy="73.26" rx="17.95" ry="16.97"/><ellipse class="cls-4" cx="144.92" cy="75.58" rx="8.65" ry="8.18"/><ellipse class="cls-5" cx="100" cy="107.18" rx="53.85" ry="50.64"/><path class="cls-3" d="M94.87,133.29h10.26a123.59,123.59,0,0,1,18.15-71.55A60.77,60.77,0,0,0,100,56.29c-8.22,0-18.35,2.75-23.28,5.45A123.59,123.59,0,0,1,94.87,133.29Z"/><path class="cls-6" d="M99.48,116.45c-16,1.46-22.26,11-22.26,17.39a11.56,11.56,0,0,0,22.78,2.8,11.56,11.56,0,0,0,22.78-2.8C122.78,127.45,113.25,116.45,99.48,116.45Z"/><circle class="cls-7" cx="72.02" cy="113" r="6.64"/><path class="cls-8" d="M68.18,113a3.08,3.08,0,0,1,4.19-4.19c-.54.42-1,.73-1.3,1s-.66.6-1,.89-.58.6-.89,1S68.6,112.45,68.18,113Z"/><circle class="cls-7" cx="127.98" cy="113" r="6.64"/><path class="cls-8" d="M124.13,113a3.09,3.09,0,0,1,4.2-4.19c-.55.42-1,.73-1.3,1s-.66.6-1,.89-.59.6-.89,1S124.55,112.45,124.13,113Z"/><path class="cls-9" d="M99.4,131.83c.37.73,0,3.25,0,3.25s-2.62,5.9-10.05,3.29"/><path class="cls-9" d="M100.6,131.83c-.37.73,0,3.25,0,3.25s2.62,5.9,10.05,3.29"/><path class="cls-10" d="M104.72,124.62H95.15c-1.32,0-2.13,1.18-1.44,2.11,1.62,2.21,4.29,5.37,6.22,5.37s4.6-3.16,6.23-5.37C106.84,125.8,106,124.62,104.72,124.62Z"/></g></svg>