<svg xmlns="http://www.w3.org/2000/svg" viewBox="0 0 200 200"><defs><style>.cls-1{fill:#ffd16c;}.cls-2{fill:#c96e31;}.cls-3{fill:#ffc5ae;}.cls-4{fill:#ffe4cc;}.cls-5{fill:#35190e;}.cls-6{fill:#fff;}.cls-7{fill:none;stroke:#998271;stroke-linecap:round;stroke-linejoin:round;stroke-width:3px;}.cls-8{fill:#998271;}</style></defs><title>monkey</title><g id="objects"><circle class="cls-1" cx="100" cy="100" r="78.57" transform="translate(-41.42 100) rotate(-45)"/><circle class="cls-2" cx="41.54" cy="87.65" r="17.95"/><circle class="cls-3" cx="44" cy="90.11" r="10.38"/><circle class="cls-2" cx="158.46" cy="87.65" r="17.95"/><circle class="cls-3" cx="156" cy="90.11" r="10.38"/><path class="cls-4" d="M119.54,76.73C110.87,77.93,103.08,84,100,91.51,96.92,84,89.13,77.93,80.46,76.73c-11.78-1.63-23.85,4.62-30.37,14a40.19,40.19,0,0,0-6.75,23.86c5.14,26.71,26.35,43.26,56.66,43.26s51.52-16.55,56.66-43.26a40.19,40.19,0,0,0-6.75-23.86C143.39,81.35,131.32,75.1,119.54,76.73Z"/><path class="cls-2" d="M156,88.24C149.14,60.62,126.29,48,100,48S50.86,60.62,44,88.24a61.19,61.19,0,0,0-.8,25.78c0,.19.08.38.12.57a40.19,40.19,0,0,1,6.75-23.86c6.52-9.38,18.59-15.63,30.37-14C89.13,77.93,96.92,84,100,91.51c3.08-7.55,10.87-13.58,19.54-14.78,11.78-1.63,23.85,4.62,30.37,14a40.19,40.19,0,0,1,6.75,23.86c0-.19.09-.38.12-.57A61.19,61.19,0,0,0,156,88.24Z"/><circle class="cls-5" cx="72.02" cy="108.02" r="6.64"/><path class="cls-6" d="M68.18,108a3.09,3.09,0,0,1,4.19-4.2c-.54.42-1,.73-1.3,1.05s-.66.59-1,.89-.58.6-.89.95S68.6,107.47,68.18,108Z"/><circle class="cls-5" cx="127.98" cy="108.02" r="6.64"/><path class="cls-6" d="M124.13,108a3.09,3.09,0,0,1,4.2-4.2c-.55.42-1,.73-1.3,1.05s-.66.59-1,.89-.59.6-.89.95S124.55,107.47,124.13,108Z"/><path class="cls-7" d="M99.4,128.36c.37.73,0,8.23,0,8.23s-2.62,5.9-10.05,3.3"/><path class="cls-7" d="M100.6,128.36c-.37.73,0,8.23,0,8.23s2.62,5.9,10.05,3.3"/><circle class="cls-8" cx="100" cy="125.66" r="4.57"/></g></svg>