<svg xmlns="http://www.w3.org/2000/svg" viewBox="0 0 200 200"><defs><style>.cls-1{fill:#ca9fd3;}.cls-2{fill:#73d3dd;}.cls-3{fill:#35190e;}.cls-4{fill:#fff;}.cls-5{fill:#86efef;}.cls-6{fill:#00b2b2;}</style></defs><title>octopus</title><g id="objects"><circle class="cls-1" cx="100" cy="100" r="78.57" transform="translate(-41.42 100) rotate(-45)"/><ellipse class="cls-2" cx="100" cy="90.57" rx="53.85" ry="50.64"/><circle class="cls-3" cx="72.02" cy="96.39" r="6.64"/><path class="cls-4" d="M68.18,96.39a3.09,3.09,0,0,1,4.19-4.2c-.54.42-1,.73-1.3,1s-.66.59-1,.89-.58.6-.89,1S68.6,95.84,68.18,96.39Z"/><circle class="cls-3" cx="127.98" cy="96.39" r="6.64"/><path class="cls-4" d="M124.13,96.39a3.09,3.09,0,0,1,4.2-4.2c-.55.42-1,.73-1.3,1s-.66.59-1,.89-.59.6-.89,1S124.55,95.84,124.13,96.39Z"/><circle class="cls-5" cx="99.26" cy="114.11" r="13.57" transform="translate(-48.35 81.18) rotate(-36.4)"/><circle class="cls-6" cx="99.26" cy="114.11" r="7.83" transform="translate(-51.61 103.61) rotate(-45)"/><path class="cls-5" d="M48.05,125.27a14.52,14.52,0,0,0,21.23,19.52,14.33,14.33,0,0,1,.17-1.62A62.91,62.91,0,0,1,48.05,125.27Z"/><path class="cls-5" d="M69.28,144.79c0,.27,0,.53,0,.81a15.52,15.52,0,0,0,30.26,4.89,66.75,66.75,0,0,1-29.06-6.83A15.47,15.47,0,0,1,69.28,144.79Z"/><path class="cls-5" d="M70.44,143.66c-.33-.16-.67-.32-1-.49a14.33,14.33,0,0,0-.17,1.62A15.47,15.47,0,0,0,70.44,143.66Z"/><path class="cls-5" d="M130.55,143.17a14.33,14.33,0,0,1,.17,1.62A14.51,14.51,0,0,0,152,125.27,62.91,62.91,0,0,1,130.55,143.17Z"/><path class="cls-5" d="M129.56,143.66a66.75,66.75,0,0,1-29.06,6.83,15.52,15.52,0,0,0,30.26-4.89c0-.28,0-.54,0-.81A15.47,15.47,0,0,1,129.56,143.66Z"/><path class="cls-5" d="M129.56,143.66a15.47,15.47,0,0,0,1.16,1.13,14.33,14.33,0,0,0-.17-1.62C130.23,143.34,129.89,143.5,129.56,143.66Z"/><path class="cls-5" d="M99.5,150.49h1a17,17,0,0,1-.5-1.86A17,17,0,0,1,99.5,150.49Z"/><path class="cls-6" d="M69.45,143.17a15.47,15.47,0,0,1,4.86-9c0-.12,0-.23,0-.35a14.52,14.52,0,0,0-26.28-8.52A62.91,62.91,0,0,0,69.45,143.17Z"/><path class="cls-6" d="M99.7,145.6a15.88,15.88,0,0,1,.3-3,15.51,15.51,0,0,0-25.69-8.43,14.46,14.46,0,0,1-3.87,9.52,66.75,66.75,0,0,0,29.06,6.83,17,17,0,0,0,.5-1.86A15.88,15.88,0,0,1,99.7,145.6Z"/><path class="cls-6" d="M69.45,143.17c.32.17.66.33,1,.49a14.46,14.46,0,0,0,3.87-9.52A15.47,15.47,0,0,0,69.45,143.17Z"/><path class="cls-6" d="M140.2,119.26a14.54,14.54,0,0,0-14.53,14.53c0,.12,0,.23,0,.35a15.47,15.47,0,0,1,4.86,9,62.91,62.91,0,0,0,21.4-17.9A14.52,14.52,0,0,0,140.2,119.26Z"/><path class="cls-6" d="M125.69,134.14A15.51,15.51,0,0,0,100,142.57a15.45,15.45,0,0,1,0,6.06,17,17,0,0,0,.5,1.86,66.75,66.75,0,0,0,29.06-6.83A14.46,14.46,0,0,1,125.69,134.14Z"/><path class="cls-6" d="M100,148.63a15.45,15.45,0,0,0,0-6.06,15.45,15.45,0,0,0,0,6.06Z"/><path class="cls-6" d="M125.69,134.14a14.46,14.46,0,0,0,3.87,9.52c.33-.16.67-.32,1-.49A15.47,15.47,0,0,0,125.69,134.14Z"/></g></svg>