<svg xmlns="http://www.w3.org/2000/svg" viewBox="0 0 200 200"><defs><style>.cls-1{fill:#489ed3;}.cls-2{fill:#c17474;}.cls-3{fill:#fff9f3;}.cls-4{fill:#f2dac0;}.cls-5{fill:#35190e;}.cls-6{fill:#fff;}.cls-7{fill:#ffd16c;}.cls-8{fill:#8e4f4f;}</style></defs><title>owl</title><g id="objects"><circle class="cls-1" cx="100" cy="100" r="78.57"/><path class="cls-2" d="M49.53,77.12c-.67-8.88-.45-18.23,3.65-27.9a4.68,4.68,0,0,1,6.62-2.49c8.34,5,13.86,13,18,22.74Z"/><path class="cls-2" d="M150.68,77.12c.68-8.88.46-18.23-3.64-27.9a4.69,4.69,0,0,0-6.62-2.49c-8.34,5-13.86,13-18,22.74Z"/><path class="cls-2" d="M156,88.24C149.14,60.62,126.29,48,100,48S50.86,60.62,44,88.24a61.19,61.19,0,0,0-.8,25.78c0,.19.08.38.12.57,5.14,26.71,26.35,43.26,56.66,43.26s51.52-16.55,56.66-43.26c0-.19.09-.38.12-.57A61.19,61.19,0,0,0,156,88.24Zm-56,64.39c-28.84,0-52.68-17.59-56.64-40.48a43.27,43.27,0,0,1,1.91-11.53c.31-1,.67-2,1.06-3a36.19,36.19,0,0,1,3.76-6.94c.4-.58.83-1.16,1.28-1.72a32.67,32.67,0,0,1,2.93-3.19,31.84,31.84,0,0,1,2.48-2.15c.86-.68,1.75-1.32,2.68-1.92a33.35,33.35,0,0,1,10.05-4.38,29.88,29.88,0,0,1,3.24-.63A32.89,32.89,0,0,1,76,76.48a28.49,28.49,0,0,1,4.42.25,24.71,24.71,0,0,1,3.21.67,25.68,25.68,0,0,1,4.55,1.77A28,28,0,0,1,91,80.8a27,27,0,0,1,2.56,2A23.42,23.42,0,0,1,100,91.51a23.42,23.42,0,0,1,6.42-8.76,27,27,0,0,1,2.56-2,28,28,0,0,1,2.8-1.63,25.68,25.68,0,0,1,4.55-1.77,24.71,24.71,0,0,1,3.21-.67c11.78-1.63,23.85,4.62,30.37,14a34.7,34.7,0,0,1,2.45,4.08c.3.59.58,1.18.85,1.78a38.77,38.77,0,0,1,2,5.54,42.26,42.26,0,0,1,1,4.6c.16,1,.28,2.08.37,3.13.06.76.1,1.53.12,2.29C152.68,135,128.84,152.63,100,152.63Z"/><path class="cls-3" d="M100,158.45c28.84,0,52.68-16.77,56.64-39.65,0-.77-.06-8.18-.12-8.94-.09-1-.21-2.09-.37-3.13a42.26,42.26,0,0,0-1-4.6,38,38,0,0,0-2.81-7.32,34.7,34.7,0,0,0-2.45-4.08c-6.52-9.38-18.59-15.63-30.37-14a24.71,24.71,0,0,0-3.21.67,25.68,25.68,0,0,0-4.55,1.77A28,28,0,0,0,109,80.8a27,27,0,0,0-2.56,2A23.42,23.42,0,0,0,100,91.51a23.42,23.42,0,0,0-6.42-8.76,27,27,0,0,0-2.56-2,28,28,0,0,0-2.8-1.63,25.68,25.68,0,0,0-4.55-1.77,24.71,24.71,0,0,0-3.21-.67A28.49,28.49,0,0,0,76,76.48a30,30,0,0,0-6.53.89,33.35,33.35,0,0,0-10.05,4.38,34.48,34.48,0,0,0-5.16,4.07A32.67,32.67,0,0,0,51.37,89c-.45.56-.88,1.14-1.28,1.72a36.19,36.19,0,0,0-3.76,6.94c-.39,1-.75,2-1.06,3-1.17,3.72-1.78,14.26-1.91,18.18C47.32,141.68,71.16,158.45,100,158.45Z"/><circle class="cls-4" cx="71.26" cy="106.63" r="19.92"/><circle class="cls-4" cx="128.74" cy="106.63" r="19.92"/><circle class="cls-5" cx="71.84" cy="108.02" r="6.64"/><path class="cls-6" d="M68,108a3.09,3.09,0,0,1,4.2-4.2c-.55.42-1,.73-1.31,1.05s-.65.59-.95.89-.59.6-.9.95S68.41,107.47,68,108Z"/><circle class="cls-5" cx="127.79" cy="108.02" r="6.64"/><path class="cls-6" d="M124,108a3.09,3.09,0,0,1,4.19-4.2c-.54.42-.95.73-1.3,1.05s-.66.59-1,.89-.58.6-.89.95S124.37,107.47,124,108Z"/><path class="cls-7" d="M109.48,131.43c0,6.13-4.24,14.62-9.48,14.62s-9.48-8.49-9.48-14.62,4.24-11.11,9.48-11.11S109.48,125.29,109.48,131.43Z"/><path class="cls-8" d="M100.32,91.64a45.37,45.37,0,0,0-39.63-6.52c-5,1.57-9.71,4-14.79,5.27s-10.88,1.15-15.06-2c8,1.19,13.25-2.4,20.18-6.52S65,73.08,73,72.28C85.09,71.07,98.3,79.65,100.32,91.64Z"/><path class="cls-8" d="M99.68,91.64a45.37,45.37,0,0,1,39.63-6.52c5,1.57,9.71,4,14.79,5.27s10.88,1.15,15.06-2c-8,1.19-13.25-2.4-20.18-6.52S135,73.08,127,72.28C114.91,71.07,101.7,79.65,99.68,91.64Z"/></g></svg>