<svg xmlns="http://www.w3.org/2000/svg" viewBox="0 0 200 200"><defs><style>.cls-1{fill:#ffb8cb;}.cls-2,.cls-6{stroke:#000;stroke-width:3px;}.cls-2,.cls-5{stroke-miterlimit:10;}.cls-3{fill:#ffc5ae;}.cls-4{fill:#fff;}.cls-5,.cls-6{fill:none;}.cls-5{stroke:#fff;stroke-width:2px;}.cls-6{stroke-linecap:round;stroke-linejoin:round;}</style></defs><title>panda</title><g id="objects"><circle class="cls-1" cx="100" cy="100" r="78.57" transform="translate(-41.42 100) rotate(-45)"/><circle class="cls-2" cx="52.86" cy="60.72" r="17.95"/><circle class="cls-3" cx="55.32" cy="63.17" r="8.65" transform="translate(-18.91 102.42) rotate(-76.66)"/><circle class="cls-2" cx="146.52" cy="60.72" r="17.95"/><circle class="cls-3" cx="144.06" cy="63.17" r="8.65" transform="translate(1.28 129.18) rotate(-48.49)"/><circle class="cls-2" cx="52.86" cy="60.72" r="17.95"/><circle class="cls-3" cx="55.32" cy="63.17" r="8.65" transform="translate(-18.91 102.42) rotate(-76.66)"/><circle class="cls-2" cx="146.52" cy="60.72" r="17.95"/><circle class="cls-3" cx="144.06" cy="63.17" r="8.65" transform="translate(1.28 129.18) rotate(-48.49)"/><path class="cls-4" d="M124,51.38a66.13,66.13,0,0,0-24.26-4.56c-33.76,0-61.13,24.9-61.13,55.62s27.37,55.62,61.13,55.62c26.08,0,48.34-14.87,57.12-35.8a51.14,51.14,0,0,0,4-19.82C160.82,79.57,145.64,59.93,124,51.38Z"/><path d="M89.74,99c0,12.21-9.84,24-22.8,25.68-14,1.83-24.7-8.8-23-22.88,1.6-13.09,13.37-23.06,25.61-23.06A19.86,19.86,0,0,1,89.74,99Z"/><path d="M109.64,99c0,12.21,9.84,24,22.8,25.68,14,1.83,24.7-8.8,23-22.88-1.6-13.09-13.37-23.06-25.61-23.06A19.86,19.86,0,0,0,109.64,99Z"/><circle class="cls-5" cx="71.71" cy="106.34" r="6.64"/><path class="cls-4" d="M67.87,106.34a3.09,3.09,0,0,1,4.19-4.2c-.55.42-1,.73-1.3,1s-.66.59-1,.89-.58.6-.89,1S68.29,105.79,67.87,106.34Z"/><circle class="cls-5" cx="127.67" cy="106.34" r="6.64"/><path class="cls-4" d="M123.82,106.34a3.09,3.09,0,0,1,4.2-4.2c-.55.42-1,.73-1.31,1s-.65.59-.95.89-.59.6-.89,1S124.24,105.79,123.82,106.34Z"/><path class="cls-6" d="M99.09,123.36c.37.72,0,3.24,0,3.24s-2.62,5.9-10,3.3"/><path class="cls-6" d="M100.29,123.36c-.37.72,0,3.24,0,3.24s2.62,5.9,10,3.3"/><path d="M106.4,112.93H92.84c-1.86,0-3,3.34-2,4.64,2.31,3.13,6.09,7.6,8.82,7.6s6.51-4.47,8.82-7.6C109.41,116.27,108.26,112.93,106.4,112.93Z"/></g></svg>