<svg xmlns="http://www.w3.org/2000/svg" viewBox="0 0 200 200"><defs><style>.cls-1{fill:#489ed3;}.cls-2{fill:#fff;}.cls-3{fill:#82d9db;}.cls-4{fill:#35190e;}.cls-5{fill:#ffa81d;}.cls-6{fill:#ffe388;}</style></defs><title>parrot</title><g id="objects"><circle class="cls-1" cx="100" cy="109.65" r="78.57" transform="translate(-48.24 102.83) rotate(-45)"/><path class="cls-2" d="M145.66,150.91c8.56-13.66,10.12-35.4,4.17-50.09-4.12-10.19-14-20.26-26.3-19.34-8.55.65-13.94,6.66-17.42,13.55-3.25,6.44-5.41,23-6.11,31.31,0,.58.09,1.12.13,1.61h-.26c0-.49.08-1,.13-1.61-.7-8.28-2.86-24.87-6.11-31.31C90.41,88.14,85,82.13,76.47,81.48c-12.28-.92-22.18,9.15-26.3,19.34-6,14.69-4.39,36.43,4.17,50.09,5.54,8.85,14,15.22,24,19.56A78.53,78.53,0,0,0,100,173.31a78.53,78.53,0,0,0,21.71-2.84C131.68,166.13,140.12,159.76,145.66,150.91Z"/><path class="cls-3" d="M157.24,112.81a63.25,63.25,0,0,0-1.26-6.62c-4.7-19-17-35.87-32.7-41.47-7.17-2.55-15.06-4.62-23.28-4.62s-16.11,2.07-23.28,4.62c-15.74,5.6-28,22.5-32.7,41.47a63.25,63.25,0,0,0-1.26,6.62A61.23,61.23,0,0,0,43.22,132c0,.19.08.38.12.57A53.15,53.15,0,0,0,47,144.32c5.85,13.15,16.74,22,31.3,26.15-10-4.34-18.41-10.71-24-19.56-8.56-13.66-10.12-35.4-4.17-50.09,4.12-10.19,14-20.26,26.3-19.34C85,82.13,90.41,88.14,93.89,95a19.89,19.89,0,0,1,2.48,7.47c.38,4.66-1.33,9.28-2.93,13.68-1.45,4-3.39,7.79-4.55,11.86s-1.49,8.59.28,12.45,6,6.74,10.19,5.89c.24-1.56.44-3.12.64-4.68.2,1.56.4,3.12.64,4.68,4.15.85,8.43-2,10.19-5.89s1.44-8.37.28-12.45-3.1-7.88-4.55-11.86c-1.6-4.4-3.31-9-2.93-13.68A19.89,19.89,0,0,1,106.11,95c3.48-6.89,8.87-12.9,17.42-13.55,12.28-.92,22.18,9.15,26.3,19.34,5.95,14.69,4.39,36.43-4.17,50.09-5.54,8.85-14,15.22-24,19.56,14.56-4.2,25.45-13,31.3-26.15a53.15,53.15,0,0,0,3.65-11.78c0-.19.09-.38.12-.57A61.23,61.23,0,0,0,157.24,112.81Z"/><path class="cls-4" d="M114.69,131.88c0,9.7-6.58,26.51-14.69,26.51s-14.68-16.81-14.68-26.51,6.57-19.15,14.68-19.15S114.69,122.18,114.69,131.88Z"/><path class="cls-5" d="M114.69,137.51c0,5.37-4.69,13-8.76,18.54a7.35,7.35,0,0,1-11.86,0c-4.07-5.59-8.75-13.17-8.75-18.54,0-9.5,6.57-13.88,14.68-13.88S114.69,128,114.69,137.51Z"/><circle class="cls-4" cx="71.84" cy="125.97" r="6.64"/><path class="cls-2" d="M68,126a3.09,3.09,0,0,1,4.2-4.19c-.55.42-1,.72-1.31,1s-.65.6-.95.89-.59.6-.9,1S68.41,125.42,68,126Z"/><circle class="cls-4" cx="127.79" cy="125.97" r="6.64"/><path class="cls-2" d="M124,126a3.08,3.08,0,0,1,4.19-4.19c-.54.42-.95.72-1.3,1s-.66.6-1,.89-.58.6-.89,1S124.37,125.42,124,126Z"/><path class="cls-6" d="M58.92,138.28c-1.18-4.25-1.83-8.74-4.07-12.54s-6.68-6.8-10.93-5.64a7.28,7.28,0,0,0-2.52,1.26,60.79,60.79,0,0,0,1,10.61c0,.19.08.38.11.57a53.69,53.69,0,0,0,3.66,11.78c5.85,13.15,16.74,22,31.3,26.15A73.9,73.9,0,0,0,92.14,173,51.94,51.94,0,0,1,58.92,138.28Z"/><path class="cls-6" d="M141.19,138.28c1.18-4.25,1.83-8.74,4.06-12.54s6.68-6.8,10.94-5.64a7.37,7.37,0,0,1,2.52,1.26,61.77,61.77,0,0,1-1,10.61l-.12.57A54.23,54.23,0,0,1,154,144.32c-5.85,13.15-16.74,22-31.3,26.15A74,74,0,0,1,108,173,52,52,0,0,0,141.19,138.28Z"/><path class="cls-3" d="M91.24,25.61c-1.1-3.67-2.34-7.95-.14-11.09,2-2.88,6.34-3.4,9.56-2s5.52,4.35,7.37,7.35a50.46,50.46,0,0,1,4.22,43.39c-4,10.74-17.71,20.89-17.31,3.11C95.27,52.31,95.38,39.32,91.24,25.61Z"/><path class="cls-3" d="M69.34,44.65c-2-1.61-4.35-3.43-4.51-6s2.06-4.79,4.54-5.39,5.1.08,7.46,1A31.77,31.77,0,0,1,96,61.51c.15,3.08-.2,9.39-2.89,11.59-4.74,3.89-4.55-1.34-6.5-5.8A59.47,59.47,0,0,0,69.34,44.65Z"/><path class="cls-3" d="M59.78,60.8c-1.87-.19-4.29-.65-4.56-2.52-.24-1.68,1.61-2.88,3.24-3.37A18.5,18.5,0,0,1,75.94,59c3.14,2.91,5.75,7.56,5.44,11.88C74.15,69.58,68.56,61.67,59.78,60.8Z"/></g></svg>