<svg xmlns="http://www.w3.org/2000/svg" viewBox="0 0 200 200"><defs><style>.cls-1{fill:#ffd16c;}.cls-2{fill:#489ed3;}.cls-3{fill:#fff;}.cls-4{fill:#35190e;}</style></defs><title>penguin</title><g id="objects"><circle class="cls-1" cx="100" cy="100" r="78.67" transform="translate(-41.42 100) rotate(-45)"/><path class="cls-2" d="M156.05,88.22C149.2,60.58,126.32,47.9,100,47.9S50.81,60.58,44,88.22a61.21,61.21,0,0,0-.8,25.82l.12.56c5.15,26.75,26.38,40.83,56.73,40.83s51.58-14.08,56.73-40.83l.12-.56A61.21,61.21,0,0,0,156.05,88.22ZM100,152.7c-28.87,0-52.75-17.62-56.71-40.53a43.42,43.42,0,0,1,1.91-11.55c.32-1,.67-2,1.07-3a35.44,35.44,0,0,1,3.76-7c.4-.59.83-1.16,1.28-1.72a31.67,31.67,0,0,1,2.94-3.2c.78-.75,1.61-1.47,2.47-2.15s1.76-1.32,2.69-1.92a33.69,33.69,0,0,1,10.06-4.39,32.66,32.66,0,0,1,3.25-.62A30.19,30.19,0,0,1,76,76.45a28.55,28.55,0,0,1,4.43.25,25.06,25.06,0,0,1,3.21.67,26.15,26.15,0,0,1,4.55,1.77,26.4,26.4,0,0,1,5.37,3.59c2.83,2.45,5.08,22.09,6.43,25.4,1.35-3.31,3.6-22.95,6.43-25.4a26.4,26.4,0,0,1,5.37-3.59,26.15,26.15,0,0,1,4.55-1.77,25.06,25.06,0,0,1,3.21-.67c11.79-1.63,23.89,4.63,30.41,14a34,34,0,0,1,2.45,4.09c.3.58.58,1.17.85,1.77a39.38,39.38,0,0,1,2,5.55,43,43,0,0,1,1,4.61c.16,1,.28,2.08.36,3.13.07.77.1,1.53.13,2.3C152.75,135.08,128.87,152.7,100,152.7Z"/><path class="cls-3" d="M100,152.7c28.87,0,52.75-17.62,56.71-40.53,0-.77-.06-1.53-.13-2.3-.08-1.05-.2-2.09-.36-3.13a43,43,0,0,0-1-4.61,38,38,0,0,0-2.82-7.32A34,34,0,0,0,150,90.72c-6.52-9.39-18.62-15.65-30.41-14a25.06,25.06,0,0,0-3.21.67,26.15,26.15,0,0,0-4.55,1.77,26.4,26.4,0,0,0-5.37,3.59c-2.83,2.45-5.08,22.09-6.43,25.4-1.35-3.31-3.6-22.95-6.43-25.4a26.4,26.4,0,0,0-5.37-3.59,26.15,26.15,0,0,0-4.55-1.77,25.06,25.06,0,0,0-3.21-.67A28.55,28.55,0,0,0,76,76.45a30.11,30.11,0,0,0-6.54.89A34.33,34.33,0,0,0,54.25,85.8,31.67,31.67,0,0,0,51.31,89c-.45.56-.88,1.13-1.28,1.72a35.44,35.44,0,0,0-3.76,7c-.4,1-.75,2-1.07,3a43.42,43.42,0,0,0-1.91,11.55C47.25,135.08,71.13,152.7,100,152.7Z"/><circle class="cls-4" cx="71.8" cy="108.03" r="6.65"/><path class="cls-3" d="M68,108a3.09,3.09,0,0,1,4.2-4.2c-.54.42-1,.73-1.3,1s-.66.6-1,.89-.59.6-.89,1S68.37,107.48,68,108Z"/><circle class="cls-4" cx="127.83" cy="108.03" r="6.65"/><path class="cls-3" d="M124,108a3.09,3.09,0,0,1,4.2-4.2c-.55.42-1,.73-1.31,1s-.66.6-1,.89-.59.6-.9,1S124.4,107.48,124,108Z"/><path class="cls-1" d="M113.14,124.49c0,7.26-26.28,7.26-26.28,0a13.14,13.14,0,1,1,26.28,0Z"/></g></svg>