<svg xmlns="http://www.w3.org/2000/svg" viewBox="0 0 200 200"><defs><style>.cls-1{fill:#ca9fd3;}.cls-2{fill:#ffbd5c;}.cls-3{fill:#35190e;}.cls-4{fill:#fff;}.cls-5{fill:#ffc5ae;}.cls-6,.cls-7{fill:#dd6e00;}.cls-7{stroke:#dd6e00;stroke-miterlimit:10;stroke-width:4px;}.cls-8{fill:#fffaf0;}.cls-9{fill:none;stroke:#998271;stroke-linecap:round;stroke-linejoin:round;stroke-width:3px;}.cls-10{fill:#8c6042;}</style></defs><title>redpanda</title><g id="objects"><circle class="cls-1" cx="100" cy="100" r="78.57" transform="translate(-41.42 100) rotate(-45)"/><path class="cls-2" d="M150.18,82.11c-9.29-22.12-27.83-31.37-50-31.37S59.44,60,50.15,82.11c-3.13,7.47-6.26,19.58-6,27.61.93,28.17,22.14,43.7,56,43.7s55.09-15.53,56-43.7C156.44,101.69,153.31,89.58,150.18,82.11Z"/><circle class="cls-3" cx="72.19" cy="107.19" r="6.64"/><path class="cls-4" d="M68.34,107.19a3.09,3.09,0,0,1,4.2-4.2c-.55.42-1,.73-1.31,1.05s-.65.59-1,.89-.59.6-.9.95S68.76,106.64,68.34,107.19Z"/><circle class="cls-3" cx="128.14" cy="107.19" r="6.64"/><path class="cls-4" d="M124.3,107.19a3.09,3.09,0,0,1,4.19-4.2c-.54.42-1,.73-1.3,1.05s-.66.59-1,.89-.58.6-.89.95S124.72,106.64,124.3,107.19Z"/><path class="cls-5" d="M43.15,69.28A30.2,30.2,0,0,0,29.7,63.93,24.09,24.09,0,0,0,40.59,82.78c3.15,2,8.95,2.92,13.64,1.92A30.44,30.44,0,0,0,43.15,69.28Z"/><path class="cls-6" d="M61.22,74.85c.29-22.13-26-21-28.41-20.16-1.85.66-2.62,2.84-2.92,4.79a22.06,22.06,0,0,0-.19,4.45,30.2,30.2,0,0,1,13.45,5.35A30.44,30.44,0,0,1,54.23,84.7C59,83.7,61.15,80.88,61.22,74.85Z"/><path class="cls-5" d="M157.18,69.28a30.2,30.2,0,0,1,13.45-5.35,24.09,24.09,0,0,1-10.89,18.85c-3.15,2-9,2.92-13.64,1.92A30.44,30.44,0,0,1,157.18,69.28Z"/><path class="cls-6" d="M139.11,74.85c-.29-22.13,26-21,28.41-20.16,1.85.66,2.62,2.84,2.92,4.79a22.06,22.06,0,0,1,.19,4.45A29.82,29.82,0,0,0,146.1,84.7C141.36,83.7,139.18,80.88,139.11,74.85Z"/><path class="cls-7" d="M150.18,82.11c-9.29-22.12-27.83-31.37-50-31.37S59.44,60,50.15,82.11c-3.13,7.47-6.26,19.58-6,27.61,0,.66.07,1.31.11,2,2.35-14.4,11.67-25.11,24.63-31.88,5.66-3,12.94-4.6,18.15-.93,4.29,3,5.78,8.62,6.67,13.78a120.75,120.75,0,0,1,1.84,29.52c-.07,1.41-.4.8-.39,2.22a6.23,6.23,0,0,0,5-1.71,6.26,6.26,0,0,0,5,1.71c0-1.42-.32-.81-.39-2.22a120.75,120.75,0,0,1,1.84-29.52c.89-5.16,2.38-10.76,6.67-13.78,5.21-3.67,12.49-2,18.15.93,13,6.77,22.28,17.48,24.63,31.87,0-.64.09-1.29.11-2C156.44,101.69,153.31,89.58,150.18,82.11Z"/><path class="cls-8" d="M151,107.55c-4.37-1.27-10.13-.26-14.88,4.3C132.77,115,110.58,141,100.17,141s-32.53-26-35.91-29.12a16.4,16.4,0,0,0-14.88-3.47c-4.37,1.27-8.15,5.46-8.15,10.29,0,25,42.42,38.09,60.44,38,17-.07,57.43-12.65,57.43-38.84C159.1,113,155.32,108.82,151,107.55Z"/><ellipse class="cls-8" cx="100.16" cy="130.08" rx="15.68" ry="12.25"/><path class="cls-9" d="M99.57,124.21c.36.72,0,3.24,0,3.24s-2.62,5.9-10.06,3.3"/><path class="cls-9" d="M100.76,124.21c-.36.72,0,3.24,0,3.24s2.62,5.9,10.06,3.3"/><path class="cls-10" d="M104.89,117H95.31c-1.31,0-2.12,1.18-1.44,2.1,1.63,2.21,4.3,5.37,6.23,5.37s4.6-3.16,6.23-5.37C107,118.18,106.2,117,104.89,117Z"/></g></svg>