<svg xmlns="http://www.w3.org/2000/svg" viewBox="0 0 200 200"><defs><style>.cls-1{fill:#54d3d0;}.cls-2{fill:#fff;}.cls-3{fill:#35190e;}.cls-4{fill:#f4e8e6;}.cls-5{fill:none;stroke:#000;stroke-linecap:round;stroke-linejoin:round;stroke-width:3px;}</style></defs><title>seal</title><g id="objects"><circle class="cls-1" cx="100" cy="100" r="78.38" transform="translate(-41.42 100) rotate(-45)"/><path class="cls-2" d="M159.71,100.64C158.59,71,132.13,47.75,100.35,47.23v0h-.7v0C67.87,47.75,41.41,71,40.29,100.64c-1.17,30.79,25.37,52.25,59.34,52.85v0h.74v0C134.34,152.89,160.88,131.43,159.71,100.64Z"/><path class="cls-2" d="M74.38,107.41c8.61,11.79,17.77,27.93,10.2,36s-29.24,4.7-37.8-7.52c-8.43-12-8.61-36.27-1-43.87S65.89,95.8,74.38,107.41Z"/><path class="cls-2" d="M125.62,107.41c-8.61,11.79-17.77,27.93-10.2,36s29.24,4.7,37.8-7.52c8.43-12,8.61-36.27,1-43.87S134.11,95.8,125.62,107.41Z"/><circle class="cls-3" cx="72.09" cy="107.17" r="6.62"/><path class="cls-2" d="M68.25,107.17A3.08,3.08,0,0,1,72.44,103c-.55.43-1,.73-1.3,1s-.66.59-1,.89a11.8,11.8,0,0,0-.89,1C69,106.22,68.67,106.62,68.25,107.17Z"/><circle class="cls-3" cx="127.91" cy="107.17" r="6.62"/><path class="cls-2" d="M124.08,107.17a3.08,3.08,0,0,1,4.18-4.19c-.54.43-.95.73-1.3,1s-.65.59-.95.89a11.8,11.8,0,0,0-.89,1C124.8,106.22,124.49,106.62,124.08,107.17Z"/><ellipse class="cls-4" cx="100" cy="129.92" rx="18.1" ry="16.3"/><path class="cls-5" d="M99.4,123.3c.37.72,0,3.23,0,3.23s-2.61,5.9-10,3.3"/><path class="cls-5" d="M100.6,123.3c-.37.72,0,3.23,0,3.23s2.61,5.9,10,3.3"/><path d="M104.71,116.11H95.16c-1.31,0-2.12,1.18-1.44,2.1,1.63,2.2,4.29,5.35,6.21,5.35s4.59-3.15,6.22-5.35C106.83,117.29,106,116.11,104.71,116.11Z"/><path d="M78.24,83.55a13.28,13.28,0,0,0-5,1.57c-.88.49-1.56,2-.57,2.21a1.31,1.31,0,0,0,1-.38L78,83.64"/><path d="M78.24,81.67a15.54,15.54,0,0,0-3.76.85,18.44,18.44,0,0,0-2,.89,4.31,4.31,0,0,0-1.45,1.3,2.92,2.92,0,0,0,0,3.77,2.65,2.65,0,0,0,3,.41,7.7,7.7,0,0,0,1.38-1l3.46-2.65a2.12,2.12,0,0,0,.86-1.12,1.93,1.93,0,0,0-.19-1.45,1.89,1.89,0,0,0-1.12-.86A1.79,1.79,0,0,0,77,82l-2.46,1.89-1.2.92a6,6,0,0,1-1.18.83l.45-.19a1,1,0,0,1-.25.06l.5-.07a1,1,0,0,1-.17,0l.5.06-.16,0,.45.19-.13-.07.38.29a.76.76,0,0,1-.09-.09l.29.38-.06-.11.19.45a1.21,1.21,0,0,1,0-.18l.07.5a1,1,0,0,1,0-.25l-.07.5a1.74,1.74,0,0,1,.11-.39l-.19.45a3,3,0,0,1,.33-.54L74,87a2.27,2.27,0,0,1,.41-.41l-.38.29a7,7,0,0,1,1.45-.73l-.45.18a13.85,13.85,0,0,1,3.42-.93l-.5.07.3,0a2,2,0,0,0,1.32-.55,1.87,1.87,0,0,0,0-2.65,1.84,1.84,0,0,0-1.32-.55Z"/><path d="M121.76,83.55a13.28,13.28,0,0,1,5,1.57c.88.49,1.56,2,.57,2.21a1.31,1.31,0,0,1-1-.38L122,83.64"/><path d="M121.76,85.42l.3,0-.5-.07a13.85,13.85,0,0,1,3.42.93l-.45-.18a7,7,0,0,1,1.45.73l-.38-.29A2.27,2.27,0,0,1,126,87l-.3-.38a3,3,0,0,1,.33.54l-.19-.45a1.74,1.74,0,0,1,.11.39l-.07-.5a1,1,0,0,1,0,.25l.07-.5a1.21,1.21,0,0,1,0,.18l.19-.45-.06.11.29-.38a.76.76,0,0,1-.09.09l.38-.29-.13.07.45-.19-.16,0,.5-.06a1,1,0,0,1-.17,0l.5.07a1,1,0,0,1-.25-.06l.45.19a6.36,6.36,0,0,1-1.13-.79l-1.25-1L123,82a1.88,1.88,0,0,0-2.57.67,1.93,1.93,0,0,0-.19,1.45l.19.44a2,2,0,0,0,.67.68l3,2.31c.5.39,1,.81,1.51,1.16A2.59,2.59,0,0,0,129.13,85a4.39,4.39,0,0,0-1.36-1.42,10.49,10.49,0,0,0-1.79-.85,15.35,15.35,0,0,0-4.22-1,1.88,1.88,0,0,0-1.32.55,1.9,1.9,0,0,0-.55,1.33,1.88,1.88,0,0,0,.55,1.32,2.15,2.15,0,0,0,1.32.55Z"/></g></svg>