<svg xmlns="http://www.w3.org/2000/svg" viewBox="0 0 200 200"><defs><style>.cls-1{fill:#54d3d0;}.cls-2{fill:#ffd4e1;}.cls-3{fill:#35190e;}.cls-4{fill:#fff;}.cls-5{fill:#ffb8cb;}</style></defs><title>starfish</title><g id="objects"><circle class="cls-1" cx="100" cy="100" r="78.57" transform="translate(-41.42 100) rotate(-45)"/><path class="cls-2" d="M109.37,34.12,122.93,61.6a10,10,0,0,0,7.5,5.45l30.32,4.41a10,10,0,0,1,5.53,17l-21.94,21.38a10,10,0,0,0-2.87,8.83l5.18,30.2a10,10,0,0,1-14.47,10.51l-27.12-14.26a10,10,0,0,0-9.28,0L68.66,159.39A10,10,0,0,1,54.2,148.88l5.18-30.2a10,10,0,0,0-2.87-8.83L34.57,88.47a10,10,0,0,1,5.52-17l30.33-4.41a10,10,0,0,0,7.5-5.45L91.48,34.12A10,10,0,0,1,109.37,34.12Z"/><circle class="cls-3" cx="72.45" cy="97.1" r="6.64"/><path class="cls-4" d="M68.6,97.1a3.09,3.09,0,0,1,4.2-4.19c-.55.42-1,.73-1.31,1s-.65.59-.95.89-.59.59-.9,1S69,96.56,68.6,97.1Z"/><circle class="cls-3" cx="128.4" cy="97.1" r="6.64"/><path class="cls-4" d="M124.56,97.1a3.08,3.08,0,0,1,4.19-4.19c-.54.42-1,.73-1.3,1s-.66.59-1,.89-.58.59-.89,1S125,96.56,124.56,97.1Z"/><path class="cls-5" d="M47,77.84c-5.33,0-4.56,8.27.76,8.27S52.31,77.84,47,77.84Z"/><path class="cls-5" d="M63.21,74.45c-5.34,0-5.51,8.3-.15,8.3S68.57,74.45,63.21,74.45Z"/><path class="cls-5" d="M82.24,66.39c-5.27,0-6.42,8.23-1.09,8.23S87.57,66.39,82.24,66.39Z"/><path class="cls-5" d="M89.2,50.92c-5.33,0-4.56,8.27.75,8.27S94.52,50.92,89.2,50.92Z"/><path class="cls-5" d="M56.06,93.6c-5.34,0-4.69,8.28.64,8.28S61.39,93.6,56.06,93.6Z"/><path class="cls-5" d="M68.69,109.39c-5.27,0-6.31,8.24-1,8.24S74,109.39,68.69,109.39Z"/><path class="cls-5" d="M65.7,128.52c-5.32,0-6,8.28-.62,8.28S71,128.52,65.7,128.52Z"/><path class="cls-5" d="M62.93,146.53c-5.35,0-4.92,8.29.41,8.29S68.27,146.53,62.93,146.53Z"/><path class="cls-5" d="M80.9,139.24c-5.34,0-4.87,8.29.46,8.29S86.23,139.24,80.9,139.24Z"/><path class="cls-5" d="M154.67,77.84c5.33,0,4.56,8.27-.76,8.27S149.35,77.84,154.67,77.84Z"/><path class="cls-5" d="M138.44,74.45c5.35,0,5.51,8.3.16,8.3S133.09,74.45,138.44,74.45Z"/><path class="cls-5" d="M119.42,66.39c5.27,0,6.42,8.23,1.09,8.23S114.09,66.39,119.42,66.39Z"/><path class="cls-5" d="M112.46,50.92c5.33,0,4.56,8.27-.75,8.27S107.14,50.92,112.46,50.92Z"/><path class="cls-5" d="M145.59,93.6c5.35,0,4.7,8.28-.63,8.28S140.27,93.6,145.59,93.6Z"/><path class="cls-5" d="M133,109.39c5.28,0,6.32,8.24,1,8.24S127.62,109.39,133,109.39Z"/><path class="cls-5" d="M136,128.52c5.32,0,6,8.28.61,8.28S130.61,128.52,136,128.52Z"/><path class="cls-5" d="M138.73,146.53c5.35,0,4.92,8.29-.42,8.29S133.39,146.53,138.73,146.53Z"/><path class="cls-5" d="M120.75,139.24c5.35,0,4.88,8.29-.45,8.29S115.42,139.24,120.75,139.24Z"/><path class="cls-5" d="M99.21,131.36c-5.32,0-4.22,8.23,1.06,8.23S104.5,131.36,99.21,131.36Z"/><path class="cls-5" d="M100.2,32.45c-5.35,0-5.14,8.3.2,8.3S105.55,32.45,100.2,32.45Z"/></g></svg>