<svg xmlns="http://www.w3.org/2000/svg" viewBox="0 0 200 200"><defs><style>.cls-1{fill:#54d3d0;}.cls-2{fill:#fff;}.cls-3{fill:#35190e;}.cls-4{fill:#ffe388;}.cls-5{fill:#ffa81d;}</style></defs><title>tucan</title><g id="objects"><circle class="cls-1" cx="100" cy="100" r="78.57" transform="translate(-41.42 100) rotate(-45)"/><path class="cls-2" d="M144.33,139.82c9.55-12.23,13.32-33,8.64-48-3.41-10.91-13.33-22.13-26.9-21.08-9.43.73-15.47,7.44-19.33,14.93-3.52,6.83-5.83,23.67-6.55,31.7,0,.55.09,1.07.13,1.53h-.25c0-.46.07-1,.12-1.53-.71-8-3-24.87-6.54-31.7-3.87-7.49-9.91-14.2-19.34-14.93-13.57-1-23.49,10.17-26.9,21.08-4.68,15-.91,35.76,8.64,48,6,7.63,14.32,13,23.85,16.55a83.7,83.7,0,0,0,20.29,2.31,83.78,83.78,0,0,0,20.3-2.31C130,152.8,138.38,147.45,144.33,139.82Z"/><path class="cls-3" d="M159.05,102.19a55,55,0,0,0-.57-6.5c-2.93-19.58-14.81-38.28-32.21-44.76-7.83-2.91-16.53-5.31-25.68-5.45h-.8c-9.15.14-17.85,2.54-25.67,5.45C56.71,57.41,44.84,76.11,41.91,95.69a53,53,0,0,0-.58,6.5,54.2,54.2,0,0,0,2.51,18c0,.17.11.34.17.51a49.31,49.31,0,0,0,4.75,10.41,44,44,0,0,0,9.45,11l0,0c7-1.36,11.31-6,12.17-7.86,11.86-25.36-27.28-29.34-22.59-43.85,3.4-10.55,13.32-21.39,26.9-20.38,9.42.7,15.46,7.19,19.33,14.44A20.14,20.14,0,0,1,96.77,92c.43,4.67-1.32,9.2-2.93,13.45-1.43,3.79-3.34,7.35-4.43,11.12s-1.3,7.76.52,11.16,6,5.85,10,5.12c.08-.48.15-1,.22-1.43.08.48.14,1,.22,1.43,4,.73,8.24-1.76,10-5.12s1.61-7.45.53-11.16-3-7.33-4.44-11.12c-1.6-4.25-3.35-8.78-2.92-13.45a20,20,0,0,1,2.72-7.64c3.86-7.25,9.9-13.74,19.33-14.44,13.57-1,23.49,9.83,26.9,20.38,4.68,14.51-34.45,18.49-22.6,43.85.87,1.84,5.19,6.5,12.18,7.86l0,0a44,44,0,0,0,9.46-11,49.29,49.29,0,0,0,4.74-10.41l.18-.51A54.19,54.19,0,0,0,159.05,102.19Z"/><ellipse class="cls-4" cx="127.68" cy="96.23" rx="25.32" ry="26.15"/><ellipse class="cls-4" cx="72.7" cy="96.23" rx="25.32" ry="26.15"/><path class="cls-3" d="M117.21,109.88c0,8.88-7.62,24.26-17,24.26s-17-15.38-17-24.26,7.62-17.52,17-17.52S117.21,101,117.21,109.88Z"/><path class="cls-5" d="M100.19,111.72c-13.61,0-21.56-17.49-19.53,10.94.68,9.56,1.2,16.89,7.8,30a8.91,8.91,0,0,1,3.5-.31,10.7,10.7,0,0,1,8.64,6.92,10.73,10.73,0,0,1,8.66-6.92,8.83,8.83,0,0,1,2.72.12c5-11.38,7.07-20.29,7.75-29.79C121.75,94.23,113.8,111.72,100.19,111.72Z"/><path class="cls-3" d="M109.26,152.33a10.73,10.73,0,0,0-8.66,6.92A10.7,10.7,0,0,0,92,152.33a8.91,8.91,0,0,0-3.5.31c1.25,4.22,9.65,14.67,11.91,17.45.07.09.32,0,.41,0,2.66-2.42,9.93-13.32,11.2-17.61A8.83,8.83,0,0,0,109.26,152.33Z"/><circle class="cls-3" cx="71.84" cy="111.34" r="6.64"/><path class="cls-2" d="M68,111.34a3.09,3.09,0,0,1,4.2-4.19c-.55.42-1,.73-1.31,1s-.65.6-.95.89-.59.6-.9,1S68.41,110.79,68,111.34Z"/><circle class="cls-3" cx="127.79" cy="111.34" r="6.64"/><path class="cls-2" d="M124,111.34a3.08,3.08,0,0,1,4.19-4.19c-.54.42-.95.73-1.3,1s-.66.6-1,.89-.58.6-.89,1S124.37,110.79,124,111.34Z"/></g></svg>